<?xml version="1.0" encoding="UTF-8" standalone="no"?>
<svg
   xmlns:dc="http://purl.org/dc/elements/1.1/"
   xmlns:cc="http://creativecommons.org/ns#"
   xmlns:rdf="http://www.w3.org/1999/02/22-rdf-syntax-ns#"
   xmlns:svg="http://www.w3.org/2000/svg"
   xmlns="http://www.w3.org/2000/svg"
   xmlns:sodipodi="http://sodipodi.sourceforge.net/DTD/sodipodi-0.dtd"
   xmlns:inkscape="http://www.inkscape.org/namespaces/inkscape"
   id="Layer_1"
   data-name="Layer 1"
   viewBox="0 0 735 852"
   version="1.1"
   sodipodi:docname="taxadb2.svg"
   inkscape:version="0.92.2 5c3e80d, 2017-08-06">
  <sodipodi:namedview
     pagecolor="#ffffff"
     bordercolor="#666666"
     borderopacity="1"
     objecttolerance="10"
     gridtolerance="10"
     guidetolerance="10"
     inkscape:pageopacity="0"
     inkscape:pageshadow="2"
     inkscape:window-width="1280"
     inkscape:window-height="756"
     id="namedview4786"
     showgrid="false"
     inkscape:zoom="0.30340376"
     inkscape:cx="257.36157"
     inkscape:cy="623.20026"
     inkscape:window-x="138"
     inkscape:window-y="1"
     inkscape:window-maximized="0"
     inkscape:current-layer="Layer_1" />
  <metadata
     id="metadata4788">
    <rdf:RDF>
      <cc:Work
         rdf:about="">
        <dc:format>image/svg+xml</dc:format>
        <dc:type
           rdf:resource="http://purl.org/dc/dcmitype/StillImage" />
        <dc:title>RStudio_Hex 2016 v7 outlines</dc:title>
      </cc:Work>
    </rdf:RDF>
  </metadata>
  <defs
     id="defs4671">
    <style
       id="style4666">.cls-1{fill:#ba6f38;}.cls-2{clip-path:url(#clip-path);}.cls-3{fill:#164f86;}.cls-4{fill:#14275b;}.cls-5{fill:#e6b35a;}.cls-6{fill:#fff;}.cls-7{fill:#ba3224;}.cls-8{fill:#b13728;}.cls-9{fill:#aa3729;}.cls-10{fill:#221819;}.cls-11{fill:#1a171b;opacity:0.1;}.cls-12{opacity:0.94;}</style>
    <clipPath
       id="clip-path">
      <polygon
         class="cls-1"
         points="369.5 8 728.2 215.1 728.2 637.2 369.5 845.6 2.8 637.2 2.8 215.1 369.5 8"
         id="polygon4668" />
    </clipPath>
    <linearGradient
       id="linearGradient3498">
      <stop
         offset="0"
         style="stop-color:#808080;stop-opacity:1"
         id="stop3500" />
      <stop
         offset="1"
         style="stop-color:#c1b9b9;stop-opacity:1"
         id="stop3502" />
    </linearGradient>
    <linearGradient
       id="linearGradient3438">
      <stop
         offset="0"
         style="stop-color:#6b6b6b;stop-opacity:1"
         id="stop3440" />
      <stop
         offset="1"
         style="stop-color:#000000;stop-opacity:0"
         id="stop3442" />
    </linearGradient>
    <linearGradient
       id="linearGradient3157">
      <stop
         offset="0"
         style="stop-color:#550000;stop-opacity:1"
         id="stop3159" />
      <stop
         offset="1"
         style="stop-color:#b3b3b3;stop-opacity:1"
         id="stop3161" />
    </linearGradient>
    <filter
       style="color-interpolation-filters:sRGB;"
       inkscape:menu-tooltip="Fades hue progressively to white"
       inkscape:menu="Color"
       inkscape:label="Hue to White"
       id="filter892">
      <feColorMatrix
         values="1 0 0 0 0 1 0 0 0 0 1 0 0 0 0 0 0 0 0 1 "
         type="matrix"
         result="r"
         in="SourceGraphic"
         id="feColorMatrix864" />
      <feColorMatrix
         values="0 1 0 0 0 0 1 0 0 0 0 1 0 0 0 0 0 0 0 1 "
         type="matrix"
         result="g"
         in="SourceGraphic"
         id="feColorMatrix866" />
      <feColorMatrix
         values="0 0 1 0 0 0 0 1 0 0 0 0 1 0 0 0 0 0 0 1 "
         type="matrix"
         result="b"
         in="SourceGraphic"
         id="feColorMatrix868" />
      <feBlend
         result="minrg"
         in="r"
         mode="darken"
         in2="g"
         id="feBlend870" />
      <feBlend
         result="p"
         in="minrg"
         mode="darken"
         in2="b"
         id="feBlend872" />
      <feBlend
         result="maxrg"
         in="r"
         mode="lighten"
         in2="g"
         id="feBlend874" />
      <feBlend
         result="q"
         in="maxrg"
         mode="lighten"
         in2="b"
         id="feBlend876" />
      <feComponentTransfer
         result="q2"
         in="q"
         id="feComponentTransfer880">
        <feFuncR
           slope="0"
           type="linear"
           id="feFuncR878" />
      </feComponentTransfer>
      <feBlend
         result="pq"
         in="p"
         mode="lighten"
         in2="q2"
         id="feBlend882" />
      <feColorMatrix
         values="-1 1 0 0 0 -1 1 0 0 0 -1 1 0 0 0 0 0 0 0 1 "
         type="matrix"
         result="qminp"
         in="pq"
         id="feColorMatrix884" />
      <feComposite
         k3="1"
         operator="arithmetic"
         result="qminpc"
         in="qminp"
         in2="qminp"
         id="feComposite886" />
      <feBlend
         result="result2"
         in2="SourceGraphic"
         mode="screen"
         id="feBlend888" />
      <feComposite
         operator="in"
         in="result2"
         in2="SourceGraphic"
         result="result1"
         id="feComposite890" />
    </filter>
  </defs>
  <title
     id="title4673">RStudio_Hex 2016 v7 outlines</title>
  <g
     class="cls-2"
     clip-path="url(#clip-path)"
     id="g4679"
     style="fill:#008000">
    <circle
       class="cls-3"
       cx="365.5"
       cy="438"
       r="442.10001"
       id="circle4677"
       style="fill:#008000" />
  </g>
  <path
     class="cls-4"
     d="M 707.6,203.2 429.8,42.8 369.5,8 309.2,42.8 31.3,203.2 2.1,220.1 v 424.3 l 29.3,16.9 281.2,162.4 56.9,32.8 56.9,-32.8 281.2,-162.4 29.3,-16.9 V 220.1 Z m 0,425.3 L 369.5,823.7 31.3,628.5 V 238 L 369.5,42.8 v 0 L 707.6,238 Z"
     id="path4681"
     inkscape:connector-curvature="0"
     style="fill:#003400;fill-opacity:1" />
  <g
     id="Layer_2"
     transform="matrix(1.8100048,0,0,1.4700314,389.27576,112.26722)"
     style="fill:#ffffff">
    <path
       id="path4"
       d="m 115.026,150.153 c 8.7,-10.1 14.9,-22.6 26.8,-29.5 7,-4.1 13.3,-3.2 21,-2.2 6,0.8 12.6,3.4 18.6,3.1 -2.6,-3.4 -18.6,-6.2 -21.9,-6.9 -3.2,-0.7 -6.3,-1.4 -9.5,-2 -3.6,-0.6 -6.3,-2.1 -9.5,-4 -6.4,-3.9 -12.9,-6.4 -20.1,-3.1 -3.4,1.5 -5.4,3.4 -7.8,6.3 -1.3,1.7 -4.4,8.8 -6.2,9.2 -1.6,-7.3 -3,-14.7 -5.2,-21.8 -1.6,-5.3 -4.5,-10.3 -6.3,-15.6 -4.7,-13.3 -8.4,-26.8 -12.3,-40.4 -1.7,-6.1 -3.1,-15.4 -7.9,-20 -1.1,2.9 -2,5.9 -3.2,8.8 -1.3,3.2 -1.2,6 -1.7,9.3 -0.2,1.8 -1,4.2 -0.8,6 0.2,1.4 1.4,2.7 1.6,4.1 0.3,2.6 -1.6,6.6 -2.1,9.3 -5.2,-8.7 -9.6,-18.7 -19,-23.8 -1.7,-0.9 -4.5,-2.3 -5.8,0.2 -0.7,1.3 0.3,5.6 0.2,7.2 -0.3,2.6 0.7,3.4 1.1,5.5 0.5,2.6 -1,5 -0.2,7.8 0.7,2.4 1.8,3.6 2.1,6.1 0.3,2.2 -0.2,5.4 1,7.4 0.5,0.8 1.6,1.2 2.1,2.1 0.6,1 0.6,3.1 0.8,4.2 0.5,2.6 1.2,3.9 2.2,6.1 2.1,4.5 2.7,9.8 4.6,14.4 1.9,4.6 4.6,9.1 5.7,14 0.3,1.3 0,2.8 0.4,4 0.4,1.5 1.9,2.8 2.2,4.4 0.6,2.3 -0.4,4.7 0.5,7.1 0.5,1.3 1,2.2 1.3,3.4 0.4,1.4 -0.5,2.2 0.9,3.4 1.9,1.7 6,-0.2 8.2,-0.5 0.3,2.2 -1.3,2.4 -2.4,3.9 -0.8,1.1 -1,2.6 -1.7,3.7 -1.6,2.5 -4,4.4 -5.7,6.8 -3.8,5.6 -7,11.8 -10.3,17.8 -3,5.5 -5.7,12.6 -9.4,17.6 -1.7,2.2 -5.7,4.9 -3.7,7.5 0,-0.1 1.4,0.2 1.7,0.4 0.8,0.6 0.8,1.7 1.8,2 1.6,0.5 2.8,-0.6 3.7,-1.8 -0.2,3.1 0,5.6 0.5,8.7 3.8,-1.7 6.2,-3.6 9.2,-6.4 -0.7,3.6 -2.1,15.8 4.4,13.1 5.2,-2.2 6.1,-11.8 7.8,-16.5 -0.5,4.4 -1.1,8.7 -0.8,13.2 0.3,3.5 3.3,11.7 7.7,7.8 3.2,-2.8 3.1,-9.3 3.5,-13.3 0.4,-4.5 0.5,-9.1 0.5,-13.7 1.5,6.7 2.6,13.8 5.5,20.1 1.1,2.4 3.1,6.6 6.2,6.4 3.5,-0.3 3.3,-4.8 3.1,-7.5 -0.5,-6 -2.6,-12.6 -4.4,-18.4 -2.1,-7.1 -4.5,-14.4 -7.9,-21 11.1,-1.2 22.1,-4.2 28.9,-14 z"
       inkscape:connector-curvature="0"
       style="fill:#ffffff" />
  </g>
  <path
     id="path3"
     d="m 405.57596,335.11314 c -0.53188,5.20322 -1.06378,10.37669 -1.59568,15.57991 -1.96135,0.2676 -3.92269,0.53519 -5.88402,0.80278 0,0 4.08889,2.05156 4.82024,4.13285 0.0996,0.32705 0.0665,0.59466 -0.0996,0.80278 -0.0665,0.0594 -0.13291,0.14866 -0.19946,0.1784 -1.19676,0.80278 -4.68728,0.44598 -4.68728,0.44598 0,0 4.65403,3.50846 5.01973,4.78696 0,0.0298 0.0333,0.0594 0.0333,0.0892 0,0.0298 0,0.0594 0,0.0892 0,0.0298 -0.0333,0.0594 -0.0333,0.0594 -0.0333,0.0594 -0.0996,0.11894 -0.16623,0.17839 -1.09701,0.89199 -6.2497,1.15959 -6.2497,1.15959 0,0 5.71781,3.65712 6.08348,5.70867 0.33245,1.87315 0.0666,2.97326 0,3.15166 -0.39891,-0.29733 -9.60727,-7.22504 -15.5578,-5.20321 -0.29918,0.14866 -0.4654,0.2676 -0.5319,0.38651 -0.0333,0.0594 -0.0333,0.14866 -0.0333,0.20813 0.43215,1.15958 8.80942,2.31915 14.69348,6.86825 -0.13305,1.12984 -16.72132,-3.59766 -17.31971,-0.62439 0.5319,0.83251 17.81835,3.06247 19.11483,5.08428 -6.38268,0.20812 -19.54699,-1.24877 -19.11483,0.62438 -1.3297,2.1705 12.43295,0.95145 18.21727,2.70568 1.69541,1.7245 1.52918,3.15167 -1.42946,3.33007 -5.5516,-2.37861 -18.0178,-4.13284 -18.05104,-1.10012 0,0 0,0 0,0.0298 0,0 0.0333,0 0.0333,0.0298 0,0 0,0.0298 0.0333,0.0298 0.0333,0.0298 0.0665,0.0298 0.0996,0.0594 1.39621,0.62439 12.99807,0.32705 17.38617,2.88407 -6.18324,1.24877 -27.19292,-2.52728 -27.32587,-0.68386 0.59835,0.86225 3.92268,4.66803 9.6405,4.48964 5.71783,-0.14866 18.94861,2.08129 19.84619,3.65711 0.0333,0.0594 0.0333,0.0892 0.0333,0.14868 -0.3989,1.1001 -17.41942,-3.38953 -23.96832,-0.6244 -6.78161,2.85434 19.4805,1.12984 23.76886,4.60856 4.28838,3.50846 -8.57674,-0.32705 -8.57674,-0.32705 0,0 -17.85157,-2.22995 -20.54427,-1.10011 -2.69269,1.10011 -5.71782,3.65711 -5.71782,3.65711 0,0 1.79513,3.18141 3.55699,2.52728 0.26596,-0.0891 0.46543,-0.11894 0.56515,-0.0891 0,0 0.0333,0 0.0333,0 0,0 0.0333,0.0298 0.0333,0.0298 0,0 0,0 0.0333,0.0298 0,0 0,0 0.0333,0.0298 0,0 0.0333,0.0298 0.0333,0.0298 0,0.0298 0,0.0594 0.0333,0.0594 0.0333,0.4757 -1.22999,1.87314 -1.22999,1.87314 0,0 24.7994,5.32214 30.35102,10.07938 5.55159,4.75722 -31.81373,-7.46289 -31.81373,-7.46289 0,0 -15.02592,4.93561 0.89758,5.23294 -1.7619,2.31914 0.73135,3.71658 0.89756,3.80577 0,0 26.46155,4.93562 29.12101,8.7414 2.6927,3.80579 -18.05104,-3.65711 -22.70508,-5.73839 -4.48783,-1.9921 -16.95401,1.04064 -17.65211,1.99209 0,0 0,0.0298 -0.0333,0.0298 v 0.0892 c 0,0 0.0333,0 0.0333,0.0298 v 0.0298 c 0,0 0.0333,0.0298 0.0333,0.0594 0,0 0,0 0.0333,0.0298 0.79782,0.77307 6.38268,1.87316 6.54888,3.21114 v 0.0298 c 0,0.0594 -0.0333,0.14866 -0.0666,0.23786 -0.6981,1.21904 -7.34673,1.72449 -7.61268,2.85434 0,0.0298 -0.0333,0.0594 -0.0333,0.0594 0,1.2785 33.40937,7.46289 42.35179,14.15273 8.94241,6.68986 -26.26212,-7.93861 -26.26212,-7.93861 0,0 1.96136,2.3786 0,3.03273 -1.96134,0.62439 -8.94239,-8.89006 -20.37805,-3.03273 -2.09433,2.40835 9.97294,4.34098 13.06455,4.60856 -1.06377,2.40835 -1.96133,3.18139 2.32704,5.56001 0.46541,0.26759 0.73133,0.41625 0.83107,0.50546 0,0 0.0333,0 0.0333,0.0298 l 0.0333,0.0298 v 0.0298 c 0,0 -0.0333,0 -0.0333,0 0,0 0,0 -0.0333,0 -0.66486,-0.0892 -8.37728,-3.62739 -9.17511,-3.74632 0,0 -0.0333,0 -0.0333,0 0,0 -0.0333,0 -0.0333,0 0,0.32707 0.89755,4.13285 0.89755,4.13285 -3.95592,-2.85434 -8.74293,-3.71659 -13.23076,-0.80279 0,0.1784 -0.0333,2.9138 4.45457,4.60855 -2.52647,4.60858 2.85892,3.1814 11.43565,7.46291 -12.73213,-2.97327 -13.76267,2.52727 -4.65403,3.80578 9.10862,1.2785 34.14073,2.08128 40.02478,8.89007 1.22999,1.42717 1.59567,2.17048 1.32972,2.40835 -0.99729,0.80278 -10.03944,-5.02484 -11.33593,-5.23296 0,0 -0.0333,0 -0.0333,0 0,0 -0.0333,0 -0.0333,0.0298 -0.0333,0.0298 -0.0333,0.0594 -0.0666,0.0892 -0.33244,0.62438 -0.63161,3.38952 -0.63161,3.38952 -3.82296,-1.96236 -7.31352,-3.71658 -11.86782,-4.5491 -0.36568,0.62439 -0.26594,1.5461 -0.63163,2.17049 -4.12214,-2.64621 -7.74564,-4.51936 -13.76266,-4.78696 -0.23272,0.86223 -0.46541,1.69476 -0.73136,2.55701 0,0 -5.01972,-5.56 -14.82644,0 -5.48512,3.50845 20.74372,1.27851 25.0321,5.41135 4.28836,4.13282 0.89757,4.75721 0.89757,4.75721 -3.55703,-1.15957 -7.1473,-2.31914 -10.70431,-3.47872 0,0 -12.69888,-2.08128 -16.25592,0.47573 -3.55701,2.557 52.15854,8.7414 53.78747,15.57992 1.09701,3.71658 -13.09782,-3.89498 -25.36454,-7.13584 -0.46541,1.21903 -0.96406,2.43808 -1.42947,3.62738 -0.29918,-0.26761 -5.05294,-4.3707 -10.37186,-5.08428 0,0 -0.0333,0 -0.0333,0.0298 0,0 0,0.0298 0,0.0298 0,0.53518 1.09703,4.25176 1.09703,4.25176 0,0 -13.72943,-5.73841 -20.71049,-2.70568 -6.98108,3.03275 24.30075,4.60857 27.15967,7.4629 0.29917,0.32706 0.43216,0.5352 0.43216,0.68387 0,0.0298 -0.0333,0.0594 -0.0333,0.0892 -0.69811,0.89199 -10.00621,-2.40834 -10.937,-0.77304 -1.06378,1.90289 -16.25591,-3.47873 -16.0897,-0.95144 0.16622,2.557 2.1608,3.95443 2.1608,3.95443 0,0 31.61427,2.70568 32.71128,6.03574 1.06379,3.33005 -17.51915,-1.9029 -17.51915,-1.9029 0,0 -1.79513,2.37861 -0.36568,3.47873 0.0665,0.0298 0.0996,0.0892 0.0996,0.0892 0,0 0,0.0298 0,0.0298 0,0 -0.0333,0 -0.0333,0 -0.63161,-0.17839 -10.70429,-6.06547 -9.74025,-1.5461 -3.95593,-1.39743 -14.12834,-5.70868 -12.69889,-2.37862 1.39623,3.30033 27.95751,7.96837 28.7221,8.11702 -0.69811,0.0594 -11.93429,0.89198 -11.40241,3.50845 -15.02591,-8.14674 -14.99268,-3.27059 -14.66024,-2.88406 v 0.0298 c -0.83107,-0.11894 -19.34753,-4.22204 -4.6208,2.85434 7.87862,3.80578 9.80673,5.2924 9.83998,5.85734 0,0 0,0.0298 0,0.0594 0,0.0298 0,0.0298 -0.0333,0.0594 0,0 -0.0333,0 -0.0333,0.0298 0,0 0,0.0298 -0.0333,0.0298 0,0 -0.0333,0 -0.0333,0.0298 0,0 0,0 -0.0333,0.0298 0,0 0,0 -0.0333,0.0298 0,0 0,0.0298 -0.0333,0.0298 -0.29919,0.17839 -1.03054,0.0892 -1.26323,0.0892 0,0 -0.0333,0 -0.0333,0 0,0 -0.0333,0.0298 -0.0333,0.0298 l 0.0333,0.0298 c 0.19945,0.26759 1.36297,3.09219 1.29648,3.56792 0,0 -0.0333,0.0298 -0.0333,0.0298 v 0.0298 c 0,0 -0.0333,0 -0.0333,0 v 0.0298 c 0,0 -0.0333,0 -0.0333,0 0,0 -0.0333,0 -0.0333,0 -0.63162,-0.14866 -10.40512,-4.78695 -13.72942,-5.08428 -3.39081,-0.32707 -19.4805,3.95446 -2.32703,10.6443 17.15347,6.66011 27.69155,-1.60556 37.16587,-0.62439 9.4743,0.95145 13.92888,2.37861 13.06456,5.08428 -0.89757,2.70568 -9.67376,-8.86033 -18.91537,1.12984 -10.50484,-1.84343 -17.65211,-2.91379 -12.2335,3.95445 -17.15345,-5.70867 -27.6583,1.75422 -6.01698,4.75722 21.24236,0.56492 34.30694,-4.60856 34.30694,-4.60856 0,0 3.59027,5.88708 8.7762,1.75423 4.95323,-3.92471 5.31889,1.07038 5.51836,1.5461 0,0 0.0333,0 0.0333,0.0298 v 0.0298 c 0,0 0.0333,0 0.0333,0 0.36568,-0.0892 4.98647,-1.90289 4.98647,-1.90289 0.43217,0 0.83108,0 1.26323,0 v 38.1469 c 5.78433,0.0594 11.53541,0.0892 17.31972,0.14865 0,0 -5.55162,-33.21138 -2.49325,-37.64155 2.95865,-4.31124 5.71782,-3.8355 5.88405,-3.80578 0,0 11.26943,3.003 12.49943,2.52728 0,0 0.0333,0 0.0665,-0.0298 0,0 0.0333,0 0.0333,-0.0298 0.0333,0 0.0666,-0.0298 0.0666,-0.0594 0,0 0,0 0.0333,-0.0298 0.9308,-0.74332 -0.0333,-3.68685 5.71783,-3.21113 1.76187,-0.56492 1.09702,-3.06246 2.22728,-3.68686 0.0333,0 0.0666,-0.0298 0.0666,-0.0298 0.0333,-0.0298 0.0996,-0.0298 0.16621,-0.0594 0.0665,-0.0298 0.16621,-0.0298 0.2327,-0.0298 1.79512,-0.14867 36.2683,8.563 43.78125,0.29732 -1.96135,-4.60857 -8.7762,-0.32705 -10.53808,-0.14867 -1.59567,0 -8.41053,-2.85433 -12.33323,0 -3.55701,-2.37862 -19.81291,-3.95444 -19.81291,-3.95444 -2.12757,-1.9029 38.76153,0.95145 41.08855,-0.47571 4.82027,-4.28152 -8.94241,-3.80579 -11.06998,-2.37863 -3.82295,-2.05155 -8.60997,-1.90289 -11.53539,-0.47571 -1.39621,-2.97327 -14.69346,-1.69476 -22.07347,-2.52729 -2.36024,-1.21903 -1.96132,-1.93262 -0.36566,-2.70566 15.42484,0.59464 30.78318,2.3786 46.27449,1.75423 4.18865,-4.84643 -5.28566,-6.68985 -11.06998,-2.55702 -3.39078,-4.96535 -10.37186,-0.14865 -15.02589,-0.62439 -4.65406,-0.47573 -2.49325,-5.56 3.39079,-4.75722 5.88404,0.80278 16.45537,-0.32706 18.41672,-2.70567 1.96134,-2.37862 -1.16351,-4.78696 -10.90375,-2.52728 -3.29109,-2.85434 -10.5381,0 -13.9289,0.95144 -4.52107,-2.22995 -15.02592,-0.29732 -18.58293,0.47573 -3.49055,-1.93261 18.41671,-5.08429 18.41671,-5.08429 8.44376,-0.11894 13.23078,-1.42715 15.89023,-2.08128 12.7654,-6.0952 -0.1662,-6.74931 -6.88133,-2.31916 -4.1554,-2.88405 -8.11133,0.23787 -11.8678,1.36772 -3.52379,1.04064 -10.03946,1.81369 -10.83728,1.48662 0,0 -0.0333,0 -0.0333,-0.0298 0,0 -0.0333,-0.0298 -0.0333,-0.0298 l -0.0333,-0.0298 v -0.0298 c 0,0 0,-0.0298 0,-0.0298 0,0 0,-0.0298 0.0333,-0.0298 0.53188,-0.71358 10.17239,-5.97626 10.17239,-5.97626 0,0 12.49943,-0.80278 15.02592,-1.12983 1.52919,-0.20814 6.88135,-2.43808 6.88135,-3.2706 -0.0333,-0.50546 -2.26054,-0.47572 -9.00892,1.04065 -6.08349,0.47572 -9.64051,0.17839 -11.96754,0.32706 -3.72323,-0.3568 -5.3189,-0.68386 -5.6181,-1.01091 0,0 -0.0333,-0.0298 -0.0333,-0.0594 -0.0333,-0.0594 0,-0.11893 0.0333,-0.1784 0,0 0.0333,-0.0298 0.0666,-0.0594 0.93081,-0.65412 6.81484,-1.12985 6.81484,-1.12985 0,0 18.05105,-1.4569 19.24779,-2.31915 0,0 0,0 0.0333,-0.0298 0,0 0,-0.0298 0.0333,-0.0298 0,0 0.0333,0 0.0333,-0.0298 0.36567,-6.5709 -15.29186,-3.53818 -15.72403,-3.47872 0.0333,-4.60856 -14.16158,-0.0594 -14.82643,0 0,0 -0.0333,0 -0.0333,0 -0.59838,-0.32705 -0.86433,-0.65411 -0.93081,-0.95144 -0.0333,-0.11893 0,-0.23787 0.0333,-0.35679 0.36569,-0.95145 2.49325,-1.69477 2.49325,-1.69477 3.9227,-0.8325 9.80674,-1.1001 11.33593,-2.22994 0,0 11.10322,-0.0892 12.39969,-2.70568 -2.72593,-6.68984 -23.46966,1.1893 -26.2621,2.37862 -0.56512,0 -0.89755,-0.11894 -1.06377,-0.32706 -0.89757,-1.18931 3.59025,-5.08429 3.75647,-5.23295 0,0 0,-0.0298 0.0333,-0.0298 0.6981,-0.17839 17.2532,-0.92171 25.16506,-10.4659 0.56515,-5.88706 -9.47429,3.33007 -9.47429,3.33007 -0.76459,-7.6413 -10.90376,0.47571 -16.7878,1.12983 -5.88403,0.62439 -6.0835,-2.37861 -1.96135,-2.85433 4.12216,-0.47573 8.74296,-0.1784 11.06997,-5.73841 2.32703,-5.56001 9.30811,0.32706 10.5381,-1.75422 1.19675,-1.99208 -2.29377,-3.71659 -2.49325,-3.80579 0,0 5.18594,-4.78695 -3.22458,-4.60856 -8.3108,0.14866 -19.04834,-0.92171 -19.28102,-0.95143 0.53187,-0.1784 8.97563,-3.00301 16.95399,-2.85434 8.21107,0.14865 3.75648,-5.23295 -4.12214,-5.23295 -7.84539,0 -11.96755,-2.37862 -11.96755,-2.37862 4.45457,-1.48663 8.94241,-2.97327 13.39701,-4.4599 -0.2992,-1.10011 -0.59838,-2.22994 -0.89758,-3.33005 0,0 7.8454,-5.56002 -3.22458,-4.2815 -11.06997,1.27851 -12.33322,1.42717 -12.33322,1.42717 0,0 -21.80752,2.97324 -22.30618,3.03271 0,0 -0.0333,0 -0.0333,0 -0.19944,-0.0298 -2.36026,-0.62438 -2.75918,-1.36769 0,-0.0298 -0.0333,-0.0594 -0.0333,-0.0892 0,-0.0298 0,-0.0594 -0.0333,-0.0892 0,-0.0298 0,-0.0892 0,-0.11893 0.0996,-0.38653 0.76458,-0.80278 2.49324,-1.18931 5.71782,-1.27851 25.92967,-4.90589 28.9548,-3.95445 0.39891,0.11894 0.66487,0.0892 0.86433,-0.0298 1.13026,-0.9217 -2.65945,-6.74931 -11.93432,-7.58182 -10.70429,-0.95145 -17.31968,2.37861 -17.31968,2.37861 0,0 -6.98105,-2.22995 -0.53189,-4.13284 6.41592,-1.9029 16.62158,0.62438 16.62158,0.62438 0,0 11.43565,-3.03273 1.96134,-4.28151 -9.47429,-1.27849 -12.46616,1.12984 -16.78779,1.27853 -1.72865,-1.93264 14.8597,-2.37863 15.89024,-3.95445 -1.7619,-2.85434 -12.03404,0 -18.05104,0 -2.55973,-0.95145 -2.72595,-2.52729 0.16622,-3.50846 6.14998,-0.20813 11.90104,0.11892 18.05102,-0.0892 -0.1662,-2.9138 0,-6.36278 -0.1662,-9.27659 -7.77889,-1.2785 -16.92076,0.92172 -21.27564,0.74332 1.16351,-3.18139 17.98457,-3.98416 19.84618,-4.87616 3.85621,-4.2815 -16.12293,-0.0594 -16.58834,0 -3.55703,-0.47572 -3.32432,-2.4678 -1.09702,-3.6571 5.18592,-0.53519 16.7878,0.68385 15.92347,-2.43808 -0.66485,-2.9138 -8.04484,-1.3677 -11.10323,-0.71359 -3.02512,0.62438 -7.51293,0.14867 -7.51293,0.14867 -1.96136,-2.31916 17.51915,-1.36772 17.35293,-3.18141 -0.26594,-2.05155 -12.33322,-0.65412 -16.45537,-0.47571 -3.1581,-1.93263 14.85969,-3.24085 15.72402,-3.47872 0,0 0.0333,-0.0298 0.0333,-0.0298 0.66486,-5.29243 -12.49942,0 -15.0259,0 -0.43217,0 -0.76461,-0.0892 -0.99731,-0.26761 -0.0665,-0.0298 -0.0996,-0.0892 -0.1662,-0.14865 -0.86433,-0.89199 -0.0996,-2.94354 -0.0996,-2.94354 0,0 4.68729,-1.87316 4.98648,-2.31915 0,0 0.0333,0 0.0333,-0.0298 v -0.0298 c 0,0 0,-0.0298 0,-0.0298 0,0 -0.0333,0 -0.0333,-0.0298 0,0 -0.0333,-0.0298 -0.0666,-0.0594 -0.56514,-0.38652 -3.78973,-1.33796 -4.22189,-1.3677 0,0 -0.0333,0 -0.0333,0 0,0 -0.0333,-0.0298 -0.0333,-0.0298 0,0 0,0 -0.0333,-0.0298 0,0 -0.0333,0 -0.0333,-0.0298 -0.23269,-0.44599 0.0665,-3.59766 0.0665,-3.59766 0,0 3.72323,-2.4678 3.95595,-3.47872 v -0.0594 c 0,0 0,-0.0298 0,-0.0298 v -0.1784 c 0,0 0,-0.0298 -0.0333,-0.0298 v -0.0298 c 0,0 -0.0333,0 -0.0333,-0.0298 0,0 0,0 -0.0333,-0.0298 0,0 0,-0.0298 -0.0333,-0.0298 0,0 0,-0.0298 -0.0333,-0.0298 0,0 -0.0333,-0.0298 -0.0665,-0.0298 0,0 -0.0333,0 -0.0333,-0.0298 -0.93082,-0.41626 -4.82029,0.80278 -4.82029,0.80278 0,-1.07038 0,-2.11101 0,-3.18138 0,0 3.39082,-0.32707 3.7565,-1.75425 0.0333,-0.0892 0,-0.17839 0,-0.23785 0,-0.0298 0,-0.0892 -0.0333,-0.0892 -0.0333,-0.0594 -0.0663,-0.14868 -0.0996,-0.17841 0,0 -0.0333,-0.0298 -0.0333,-0.0298 -0.76461,-0.89199 -3.95596,-1.01092 -3.95596,-1.01092 -0.39892,-5.56001 -0.99729,-11.12001 -1.59567,-16.68002 z m -3.19134,54.47024 v 2.20022 c 0,0 -4.02243,-0.1784 -4.75378,-0.74332 0,0 0,0 -0.0333,-0.0298 0,0 0,0 -0.0333,-0.0298 0,0 -0.0333,0 -0.0333,-0.0298 0,0 -0.0333,0 -0.0333,-0.0298 0,0 0,-0.0298 -0.0333,-0.0298 v -0.0298 c 0,0 -0.0333,0 -0.0333,-0.0298 v -0.0298 c 0,0 0,-0.0298 0,-0.0298 0,0 0,0 0,-0.0298 v -0.0298 c 0,0 0,-0.0298 0.0333,-0.0594 0,0 0.0333,0 0.0333,-0.0298 0,0 0.0333,-0.0298 0.0333,-0.0594 0,0 0,0 0.0333,-0.0298 0,0 0.0333,-0.0298 0.0333,-0.0298 0.0333,-0.0298 0.0666,-0.0594 0.0996,-0.0594 1.32972,-0.83251 4.02241,-0.80279 4.55431,-0.95144 0,0 0,0 0.0333,0 0,0 0,-0.0298 0.0333,-0.0298 0.0333,0.11894 0.0665,0.14866 0.0665,0.11894 0,0 0,0 0,0 z m 5.68457,2.91379 c 0.13292,0 7.97837,0.0594 8.67648,0.95146 0,0 0,0.0298 0.0333,0.0298 0,0 0,0.0298 0.0333,0.0594 v 0.0298 c 0,0 0,0.0298 0,0.0594 0,0 0,0.0298 -0.0333,0.0594 -0.59838,1.12984 -8.54352,1.81369 -8.54352,1.81369 z m -0.43215,4.34097 c 0,0 0,-0.0298 0,0 0.0333,0 0.0333,0 0.0333,0 0.46539,0.11894 3.72322,0.20813 4.12215,0.68386 0,0 0,0 0.0333,0.0298 v 0.0298 c 0,0 0.0333,0 0.0333,0.0298 v 0.0298 c 0,0 0,0 0,0.0298 0,0 0,0 0,0.0298 0,0 0,0 0,0.0298 v 0.0298 c 0,0 -0.0333,0 -0.0333,0.0298 v 0.0298 c 0,0 0,0.0298 -0.0333,0.0298 0,0 -0.0333,0 -0.0333,0.0298 v 0.0298 c -0.66484,0.74333 -3.65673,0.92171 -3.82296,0.92171 0,0 -0.0333,0 -0.0333,0 v -0.0298 c 0,0 -0.0333,0 -0.0333,-0.0298 -0.0996,-0.35678 -0.23268,-1.93263 -0.23268,-1.93263 z m -23.90185,5.73841 c 2.55973,-0.11893 7.64593,0.41626 17.18672,2.76515 0,0.17838 0.19947,2.37859 0.0996,2.73538 0,0 -0.0333,0 -0.0333,0.0298 v 0.0298 c 0,0 -0.0333,0.0298 -0.0333,0.0298 -0.1662,-0.0594 -17.35293,-4.4599 -18.91535,-4.40043 -0.0333,0 -0.0996,0 -0.13307,0 -0.0333,0 -0.0996,0 -0.0996,-0.0298 -0.0333,0 -0.0996,-0.0298 -0.13292,-0.0594 0,0 -0.0333,0 -0.0663,-0.0298 0,0 0,-0.0298 -0.0333,-0.0298 -0.0665,-0.0298 -0.0996,-0.0892 -0.13291,-0.11894 0,0 -0.0333,0 -0.0333,-0.0298 0,0 0,-0.0298 -0.0333,-0.0298 v -0.0298 c 0,0 -0.0333,-0.0298 -0.0333,-0.0298 v -0.0298 c 0,0 0,-0.0298 0,-0.0298 0,0 0,-0.0298 0,-0.0298 0,-0.0298 0,-0.0594 0.0333,-0.0594 0.0333,-0.0594 0.0666,-0.11894 0.0996,-0.14868 0.33245,-0.20812 0.96407,-0.44598 2.26054,-0.50544 z m 8.90918,6.51145 c 2.75918,-0.0892 9.30809,1.30824 9.67377,1.24877 0,0.47573 0.29917,2.67594 -0.0333,3.12194 0,0 0,0 -0.0333,0.0298 0,0 0,0 -0.0333,0.0298 0,0 0,0.0298 -0.0333,0.0298 0,0 -0.0333,0 -0.0333,0.0298 0,0 0,0 -0.0333,0 0,0 -0.0333,0 -0.0333,0 0,0 0,0 -0.0333,0 -0.56511,-0.11893 -10.27214,-2.85434 -10.63782,-3.98417 0,-0.0298 0,-0.0594 0,-0.0594 0,-0.0298 0.0333,-0.0892 0.0665,-0.11893 0,0 0,0 0.0333,-0.0298 0,0 0,0 0.0333,-0.0298 0.19945,-0.17839 0.59837,-0.23786 1.09701,-0.26759 z m 26.99346,6.03573 c 2.6262,-0.0594 4.45458,0.14866 3.78971,0.86225 -1.86162,1.93263 -14.79321,3.50845 -14.79321,3.50845 l -0.23269,-3.50845 c 0.26592,-0.0298 6.84809,-0.77305 11.23619,-0.86225 z m -36.99968,10.97135 c 2.19407,-0.0892 7.31351,0.98118 18.71593,5.26268 l 0.0665,2.52727 c 0,0 -19.31427,-5.2032 -19.97913,-6.06546 -0.33244,-0.41624 -0.93082,-1.63529 1.19674,-1.72449 z m 37.83074,3.77605 c 0.59838,-0.0298 0.99731,0.0298 1.13027,0.14866 0,0 0,0 0.0333,0.0298 0,0 0,0.0298 0.0333,0.0594 0,0 0.0333,0.0298 0.0333,0.0594 0,0.0594 -0.0665,0.1784 -0.16623,0.2676 -1.79513,1.78395 -11.43565,3.59764 -11.43565,3.59764 0,0 0,-2.25967 0,-2.31914 0,0 0.0333,0 0.0333,0 0.36568,-0.0594 7.44647,-1.72449 10.33862,-1.84343 z m -42.31855,0.29733 c 2.89216,-0.14867 9.37457,1.21903 23.96833,7.3737 0,0.0594 0.13291,2.17048 0.0666,2.37861 0,0 -0.0333,0 -0.0333,0 -0.86431,-0.23787 -26.22885,-8.17649 -26.22885,-8.17649 -0.0333,-0.0892 -0.39892,-1.42717 2.22729,-1.57582 z m 48.30232,9.9307 c 0.73137,-0.0298 1.23,0.0298 1.32973,0.1784 0,0.0298 0.0333,0.0594 0.0333,0.0594 0,0.0594 -0.0666,0.14865 -0.19949,0.26758 -2.29376,1.84344 -16.98726,4.07338 -17.4859,4.13284 0,0 -0.0333,0 -0.0333,0 0,0 -0.0333,0 -0.0333,0 0,0 -0.0333,-0.0298 -0.0333,-0.0298 0,0 0,-0.0298 -0.0333,-0.0298 v -0.0298 c 0,0 -0.0333,-0.0298 -0.0333,-0.0298 -0.0996,-0.41624 0.19945,-1.9326 0.2327,-2.14074 0,0 0,-0.0298 0,-0.0298 0,0 0.0333,0 0.0333,0 0,0 0,0.0298 0.0333,0.0298 0,0 0,0 0.0333,0 0.96405,0 12.20024,-2.22994 16.15618,-2.37861 z m -43.14963,5.76814 c 4.35485,-0.20813 17.58564,5.20322 18.2505,5.35188 0,0 0.0333,0 0.0333,0 -0.0666,0.23786 -0.0666,2.20022 -0.13306,2.49755 v 0.0298 c 0,0 -0.0333,0 -0.0333,0 -0.36568,-0.17839 -18.48321,-6.86824 -19.28104,-6.33305 -0.49864,-1.01091 0,-1.48664 1.16351,-1.54609 z m 39.02748,1.42717 c 0.89757,-0.0298 1.56243,0 1.79513,0.0892 0.0333,0 0.0333,0.0298 0.0666,0.0594 v 0.0298 c 0,0 0,0 0,0.0298 v 0.0298 c 0,0 -0.0333,0 -0.0333,0.0298 0,0.0298 -0.0333,0.0298 -0.0665,0.0594 -1.36298,1.07038 -13.8624,3.27059 -13.8624,3.27059 0,0 -0.0666,-2.05155 -0.0666,-2.25968 0.39893,-0.11894 8.44376,-1.18931 12.167,-1.33797 z m -0.99729,7.10611 c 0.86433,-0.0298 1.49594,0.0298 1.66216,0.14866 l 0.0333,0.0298 c 0,0 0,0.0298 0,0.0298 0,0 0.0333,0 0.0333,0.0298 0,0 -0.0333,0 -0.0333,0.0298 0,0 0,0.0298 0,0.0298 0,0 -0.0333,0 -0.0333,0.0298 0,0.0298 -0.0333,0.0298 -0.0333,0.0594 0,0 -0.0333,0.0298 -0.0665,0.0594 -1.36297,1.04065 -11.93431,3.03274 -11.93431,3.03274 0,0 -0.29917,-2.25967 -0.29917,-2.31914 0.26594,-0.0594 7.34672,-1.04065 10.67106,-1.15958 z m -44.74531,0.59465 c 2.55972,-0.14867 8.90918,0.80277 24.53347,5.85733 l 0.53188,2.7354 c 0,0 -26.0294,-7.46289 -26.79399,-7.70075 v -0.0594 c 0,0 0,-0.0594 0,-0.0892 0,-0.0594 0.0333,-0.17839 0.13292,-0.26761 0.19945,-0.20812 0.63162,-0.44599 1.59566,-0.47571 z m 34.30696,5.91679 c 0.29919,0.0594 4.68729,0.17841 5.48514,0.8028 0,0 0,0 0.0333,0.0298 0,0 0,0 0.0333,0.0298 0,0 0.0333,0 0.0333,0.0298 0,0 0,0.0298 0.0333,0.0298 0,0 0.0333,0 0.0333,0.0298 0,0 0,0.0298 0.0333,0.0594 v 0.0298 c 0,0 0,0 0,0.0298 0,0 0,0.0298 0,0.0298 v 0.0298 c 0,0 -0.0333,0.0298 -0.0333,0.0298 v 0.0298 c 0,0 0,0.0298 -0.0333,0.0298 -0.66486,0.9217 -5.25242,1.2785 -5.25242,1.2785 0,0 -0.23269,-1.93262 -0.36568,-2.49755 z m 10.57133,5.29242 c 1.03054,-0.0298 1.76188,0.0892 1.89485,0.35679 0.0996,0.1784 -0.0665,0.446 -0.56513,0.80279 -3.75647,2.73539 -11.90105,3.27059 -11.90105,3.27059 v -3.003 c 0,0 0,0 0.0333,0 0.4654,-0.0594 7.18053,-1.33798 10.5381,-1.42717 z m 10.37187,2.79487 c 1.29647,-0.0298 1.86161,0.14866 2.02783,0.41626 0,0.0298 0.0333,0.0594 0.0333,0.0892 0,0.0594 0.0333,0.11894 0.0333,0.14867 -0.0333,0.32705 -0.46542,0.74331 -0.76459,1.01091 -1.26325,1.07039 -21.54158,6.77905 -21.54158,6.77905 0,0 -0.16621,-3.77606 -0.0666,-4.13284 11.83459,-3.18141 17.61888,-4.22205 20.27835,-4.31123 z m -13.09781,10.73349 c 1.29648,-0.0298 2.29378,0.0298 2.59296,0.29733 0.0333,0.0298 0.0333,0.0594 0.0665,0.0594 0,0 0,0.0298 0.0333,0.0594 0,0 0,0.0298 0,0.0594 0,0.0298 0,0.0594 0,0.0892 0,0.0594 -0.0665,0.11892 -0.0996,0.17838 -1.72865,1.51638 -10.17241,1.75423 -10.17241,1.75423 v -1.87315 c 1.59566,-0.0892 5.11945,-0.5352 7.57944,-0.62439 z m 8.44377,3.0922 c 0.39891,0 0.63163,0.0594 0.66486,0.14866 v 0.0298 c -0.0333,0.0892 -0.13291,0.20814 -0.39892,0.38652 -3.35756,2.14075 -16.02321,4.31123 -16.02321,4.31123 0,0 0.16621,-1.48662 0.23269,-1.84341 0.36567,0 12.49943,-2.97328 15.52458,-3.03274 z m 7.08079,2.34888 c 1.49593,0 2.62619,0.17841 3.29107,0.59465 0,0 0.0333,0 0.0333,0 v 0.0298 c 0,0 0,0 0,0.0298 0,0 0,0.0298 0,0.0298 -0.0665,0.41626 -0.99731,2.34889 -4.35485,3.18139 -4.15541,-0.32705 -21.80752,4.31123 -22.13995,4.37071 0,0 -0.0333,0 -0.0333,0 v -0.0298 c 0,-0.29733 0.23269,-1.90291 0.23269,-1.90291 6.0835,-3.21111 17.12025,-6.24385 22.97105,-6.30332 z m -45.14423,9.12792 c 0.0333,0 0.0665,0 0.0996,0 7.64594,0.74331 10.47162,3.2706 11.3027,4.28152 -1.52919,2.3786 -13.59646,-2.94356 -12.29997,-4.07338 0.13291,-0.11893 0.43217,-0.20814 0.89755,-0.20814 z m 43.71477,0.446 c 0.29918,0 0.56513,0.0594 0.7646,0.14866 0.0663,0.0594 0.1662,0.11892 0.19945,0.17839 0.0663,0.11894 0.13304,0.23786 0.13304,0.41626 -0.79784,1.10012 -4.91998,0.6244 -5.18594,0.59465 0.26596,-0.0594 2.62622,-1.30822 4.08893,-1.33796 z m -16.35563,7.3737 c 0.56512,-0.0298 1.03054,0.0298 1.29648,0.17839 0.0333,0.0298 0.0664,0.0594 0.0996,0.0594 0,0 0.0333,0.0298 0.0333,0.0298 0,0 0.0333,0.0298 0.0333,0.0594 0,0 0,0.0298 0.0333,0.0594 0.0333,0.11892 0.0333,0.29731 -0.0996,0.50546 -1.19678,1.99206 -6.44918,1.24876 -6.44918,1.24876 v -1.39744 c 0,0 0.0333,0 0.0333,0 0.29916,0.0298 3.19133,-0.68385 5.01971,-0.74332 z m -30.84969,5.26268 c 1.62894,-0.0594 3.02514,0.86224 4.48784,1.63529 3.29108,-0.59464 10.03944,0.47573 10.03944,0.47573 v 2.64621 c 0,0 0,0.0298 -0.0333,0.0298 0,0 0,0 -0.0333,0 -0.59838,0.0892 -8.54349,-0.20812 -10.30539,-1.21902 -1.42945,0 -5.51835,-1.9029 -5.85078,-2.88408 0,0 -0.0333,-0.0298 -0.0333,-0.0298 v -0.0594 c 0,0 0,-0.0298 0,-0.0298 v -0.0892 c 0,0 0.0333,-0.0298 0.0333,-0.0298 v -0.0298 c 0.6316,-0.26758 1.1635,-0.38652 1.69539,-0.41626 z m 34.60617,1.30824 c 1.22999,-0.0594 1.76187,0.26759 0.79783,1.48663 -2.69271,3.38953 -9.67378,1.99208 -9.67378,1.99208 l -0.29918,-2.11102 c 2.49325,0.11894 6.98107,-1.24876 9.17513,-1.36769 z m -26.0294,6.86823 c 2.82566,-0.11891 5.88403,0.89199 5.88403,0.89199 0.0665,0.11894 1.52919,2.64621 0.2327,3.50845 -0.0333,0.0298 -0.0996,0.0595 -0.16622,0.0892 -1.56243,0.74331 -9.07539,-0.56492 -9.50755,-3.27059 0.86432,-0.83251 2.19405,-1.15957 3.55704,-1.21904 z m -29.0213,1.33798 c 2.55973,-0.14866 5.45188,1.27849 5.78431,1.42717 0,0 0.0333,0 0.0333,0 0,0.0892 -0.0996,2.55701 -0.0996,2.55701 0,0 -5.08622,-1.27851 -6.71513,-3.80579 0.29919,-0.11893 0.66487,-0.17839 0.99732,-0.17839 z m 49.03367,0.32706 c 2.85892,-0.0298 6.34946,0.59465 6.84809,1.45691 0.0996,0.17838 0.0666,0.38652 -0.0996,0.56491 -1.42946,1.51636 -9.50754,0.14867 -9.50754,0.14867 v -1.87317 c 0.6981,-0.17839 1.69539,-0.29732 2.75917,-0.29732 z"
     inkscape:connector-curvature="0"
     style="fill:#ffffff;stroke-width:0.31438956" />
  <g
     id="layer1"
     transform="matrix(0.5399153,0,0,0.49139766,14.632843,222.29421)"
     style="fill:#ffffff">
    <path
       style="fill:#ffffff;fill-opacity:1;fill-rule:nonzero;stroke:none"
       id="path3278"
       d="m 410.79705,100.5576 c -57.6705,23.25734 -86.94726,55.22556 -120.35042,103.32617 -3.86266,4.46131 -11.48048,25.33954 -21.94049,31.176 -40.44581,34.53255 -83.7523,63.27665 -92.21729,147.13957 -72.84234,14.29577 -101.49155,-42.13486 -103.56581,15.22614 -0.276226,7.63868 38.89289,19.19554 84.59556,25.60886 -27.49675,21.53917 -57.702056,44.10544 -62.851222,57.45291 -4.448547,11.53134 80.635412,-14.69577 113.569332,-45.40005 37.2827,14.78357 79.52848,5.77893 95.18752,-3.81349 49.93404,28.53721 117.47366,64.46012 121.9196,64.57885 13.71458,0.3662 -22.55642,-41.70269 -62.59903,-71.95532 48.15868,-1.23569 91.18482,-1.70783 92.72167,-8.93526 11.77494,-55.37519 -66.27852,-8.92107 -92.66563,-23.68819 100.89684,-33.23855 24.65891,1.70349 127.94413,-5.8455 0.30536,-0.29285 -42.35987,-40.5004 -34.35381,-44.70416 6.19834,-3.25457 20.66042,-9.06861 27.43261,-12.38689 9.57295,4.32134 48.84631,14.54912 53.38011,15.11479 3.3184,0.41402 -13.11393,-14.29653 -17.26097,-26.30475 -3.69671,-10.70416 5.93069,-17.97292 7.56568,-19.37365 6.44265,-5.51958 7.86077,-7.21404 13.02979,-10.9116 -1.21421,19.52208 130.24878,66.85226 123.09649,48.12794 -27.39749,-12.44069 -73.6218,-58.36541 -62.17871,-61.51692 32.52613,-63.70518 111.54155,-156.28084 133.21208,-155.79649 -44.9228,-20.676422 -140.88864,79.7349 -199.22969,113.90374 -14.47038,8.47496 -23.4429,15.35818 -47.63579,7.20945 -8.97138,-3.02176 15.99354,-46.90593 14.73908,-51.71875 -13.97734,2.20579 -39.39818,19.84659 -52.11916,28.36459 -23.36887,15.64784 -37.9709,12.23816 -72.74266,6.43005 -7.6922,-0.97924 -5.60872,-2.74378 -7.56568,-17.36949 9.36165,-36.30661 49.14647,-104.683592 40.88271,-103.93855 z m 323.67119,17.11896 c 1.55457,0.71551 3.05473,1.57544 4.48337,2.58873 -0.94112,-1.7206 -2.48642,-2.54409 -4.48337,-2.58873 z"
       inkscape:connector-curvature="0" />
  </g>
  <g
     aria-label="taxadb"
     transform="matrix(1.45438,0,0,1.6986973,-50.184709,-196.54857)"
     style="font-style:italic;font-variant:normal;font-weight:bold;font-stretch:normal;font-size:85.33333588px;line-height:125%;font-family:sans-serif;-inkscape-font-specification:'sans-serif Bold Italic';letter-spacing:0px;word-spacing:0px;fill:#ffffff;fill-opacity:1;stroke:none;stroke-width:1px;stroke-linecap:butt;stroke-linejoin:miter;stroke-opacity:1"
     id="flowRoot1740">
    <path
       d="m 159.24935,465.47982 -2.54167,13.25 h 15.25 l -2.125,10.66667 h -15.25 l -3.83333,19.75 q -0.16667,0.66666 -0.25,1.125 -0.0417,0.45833 -0.0417,0.875 0,1.91666 1.25,2.75 1.29167,0.83333 4.29167,0.83333 h 7.70833 l -2.125,10.66667 h -12.54166 q -6.75,0 -10.29167,-2.83334 -3.54167,-2.83333 -3.54167,-8.16666 0,-1.16667 0.125,-2.5 0.125,-1.33334 0.375,-2.70834 l 3.83334,-19.79166 h -7.33334 l 2.04167,-10.66667 h 7.41667 l 2.58333,-13.25 z"
       style="fill:#ffffff"
       id="path840" />
    <path
       d="m 197.45769,504.39649 q -5.58334,0 -8.45834,1.75 -2.83333,1.70833 -2.83333,5.08333 0,2.54167 1.66667,4 1.70833,1.45833 4.66666,1.45833 4.58334,0 7.66667,-2.75 3.08333,-2.79166 4.125,-7.83333 l 0.33333,-1.70833 z m 23.29166,-5.625 -5.20833,26.625 h -14.91667 l 1.25,-6.91667 q -3.66666,4.16667 -7.75,6.16667 -4.08333,1.95833 -8.875,1.95833 -6.625,0 -10.54167,-3.41667 -3.875,-3.45833 -3.875,-9.29166 0,-8.91667 6.87501,-13.625 6.91666,-4.75 19.91666,-4.75 h 8.79167 l 0.16667,-1.16667 q 0.125,-0.58333 0.125,-0.83333 0.0417,-0.25 0.0417,-0.45834 0,-2.75 -2.625,-4.125 -2.58333,-1.41666 -7.70833,-1.41666 -4.625,0 -8.95833,0.95833 -4.33334,0.95833 -8.375,2.875 l 2.25,-11.375 q 4.66666,-1.16667 9.54166,-1.75 4.91667,-0.625 10.16667,-0.625 10.375,0 15.41667,3.58333 5.04166,3.54167 5.04166,10.83334 0,1.41666 -0.20833,3.125 -0.16667,1.66666 -0.54167,3.625 z"
       style="fill:#ffffff"
       id="path842" />
    <path
       d="m 245.91602,501.52149 -12.375,-22.79167 h 15.5 l 6.91666,13.83333 12.125,-13.83333 h 16.20834 l -21.25,22.70833 13,23.95834 h -15.54167 l -7.33333,-14.75 -13.41667,14.75 h -16.20833 z"
       style="fill:#ffffff"
       id="path844" />
    <path
       d="m 310.12435,504.39649 q -5.58333,0 -8.45833,1.75 -2.83334,1.70833 -2.83334,5.08333 0,2.54167 1.66667,4 1.70833,1.45833 4.66667,1.45833 4.58333,0 7.66666,-2.75 3.08334,-2.79166 4.125,-7.83333 l 0.33334,-1.70833 z m 23.29167,-5.625 -5.20834,26.625 h -14.91666 l 1.25,-6.91667 q -3.66667,4.16667 -7.75,6.16667 -4.08334,1.95833 -8.875,1.95833 -6.625,0 -10.54167,-3.41667 -3.875,-3.45833 -3.875,-9.29166 0,-8.91667 6.875,-13.625 6.91667,-4.75 19.91667,-4.75 h 8.79166 l 0.16667,-1.16667 q 0.125,-0.58333 0.125,-0.83333 0.0417,-0.25 0.0417,-0.45834 0,-2.75 -2.625,-4.125 -2.58334,-1.41666 -7.70834,-1.41666 -4.625,0 -8.95833,0.95833 -4.33333,0.95833 -8.375,2.875 l 2.25,-11.375 q 4.66667,-1.16667 9.54167,-1.75 4.91666,-0.625 10.16666,-0.625 10.375,0 15.41667,3.58333 5.04167,3.54167 5.04167,10.83334 0,1.41666 -0.20834,3.125 -0.16666,1.66666 -0.54166,3.625 z"
       style="fill:#ffffff"
       id="path846" />
    <path
       d="m 365.91602,515.77149 q 5.75,0 9.33334,-5.29167 3.625,-5.29167 3.625,-13.83333 0,-3.875 -2.04167,-6.04167 -2,-2.16667 -5.625,-2.16667 -5.66667,0 -9.33334,5.25 -3.66666,5.20834 -3.66666,13.375 0,4.25 1.95833,6.5 2,2.20834 5.75,2.20834 z m 15.70834,-30.20834 4.83333,-25 h 15.04167 l -12.625,64.83334 h -15.04167 l 1.375,-6.75 q -3.41667,4.08333 -7.16667,6.04166 -3.75,1.91667 -8.20833,1.91667 -7.875,0 -12.45834,-5 -4.58333,-5 -4.58333,-13.625 0,-5.375 1.58333,-10.45833 1.625,-5.08334 4.625,-9.25 3.79167,-5.25 8.54167,-7.95834 4.79167,-2.70833 10.25,-2.70833 4.79167,0 8.125,1.95833 3.375,1.91667 5.70834,6 z"
       style="fill:#ffffff"
       id="path848" />
    <path
       d="m 435.49936,488.43815 q -5.75,0 -9.41667,5.33334 -3.625,5.29166 -3.625,13.79166 0,3.83334 2.04167,6.04167 2.08333,2.16667 5.75,2.16667 5.625,0 9.29167,-5.20834 3.66666,-5.25 3.66666,-13.41666 0,-4.25 -2,-6.45834 -1.95833,-2.25 -5.70833,-2.25 z m -15.66667,30.20834 -1.375,6.75 h -14.95833 l 12.58333,-64.83334 h 15 l -4.875,25 q 3.41667,-4.08333 7.16667,-6 3.75,-1.95833 8.20833,-1.95833 7.875,0 12.45834,5 4.58333,5 4.58333,13.625 0,5.375 -1.625,10.45833 -1.58333,5.08334 -4.58333,9.25 -3.79167,5.25 -8.58334,7.95834 -4.75,2.70833 -10.20833,2.70833 -4.79167,0 -8.16667,-1.91667 -3.33333,-1.95833 -5.625,-6.04166 z"
       style="fill:#ffffff"
       id="path850" />
  </g>
  <path
     style="opacity:1;fill:#008000;fill-opacity:1;stroke:#ffffff;stroke-width:3.29593801;stroke-opacity:1"
     d=""
     id="path1369"
     inkscape:connector-curvature="0" />
  <g
     id="layer1-0"
     transform="matrix(0.72353027,0,0,0.47471504,469.67796,137.99867)"
     style="fill:#ffffff">
    <path
       style="fill:#ffffff;stroke-width:0.14111111"
       id="path869"
       d="m -208.39653,254.54279 c -0.53159,-0.44665 -0.70921,-1.95438 -0.75453,-6.40479 -0.0411,-4.04117 -0.0411,-4.04117 -0.47911,-4.65666 -0.72236,-1.0152 -2.02851,-4.68801 -2.60009,-7.31127 -0.16148,-0.74116 -0.35153,-1.5698 -0.42231,-1.84144 -0.0708,-0.27164 -0.29533,-1.19239 -0.49899,-2.04611 -0.20366,-0.85372 -0.4915,-1.83017 -0.63964,-2.16988 -0.14814,-0.33971 -0.26935,-0.70289 -0.26935,-0.80704 0,-0.10417 -0.12147,-0.42948 -0.26992,-0.7229 -0.31817,-0.62886 -1.29907,-3.11859 -2.12823,-5.40185 -0.32412,-0.89253 -0.66017,-1.80968 -0.74679,-2.03812 -0.0866,-0.22845 -0.42915,-0.72125 -0.7612,-1.09512 -0.72079,-0.81158 -0.97419,-1.27319 -1.11007,-2.0222 -0.0558,-0.30775 -0.19486,-0.74376 -0.30895,-0.96889 -0.13357,-0.2636 -0.17716,-0.59871 -0.1224,-0.94116 0.11676,-0.73018 -0.29924,-1.64856 -1.03013,-2.27417 -0.54265,-0.46448 -1.28149,-1.65013 -1.28283,-2.05859 -0.003,-0.77322 -0.61663,-1.79308 -2.01962,-3.35417 -1.35344,-1.50592 -1.52229,-1.75706 -1.92539,-2.86358 -0.6723,-1.84552 -2.1125,-3.68736 -2.33503,-2.98622 -0.22499,0.7089 -1.44312,-0.0161 -2.97868,-1.77275 -1.22685,-1.40353 -2.14367,-2.21192 -3.49084,-3.07801 -0.39993,-0.25712 -0.98955,-0.73138 -1.31026,-1.05392 -0.92623,-0.93148 -1.74522,-0.64812 -1.74522,0.60383 0,1.42783 -0.44355,1.6718 -1.63386,0.89866 -1.06582,-0.69226 -1.34004,-0.94466 -2.74377,-2.52549 -1.90915,-2.14998 -1.83657,-1.77628 -1.42252,-7.32454 0.41083,-5.50507 -0.21016,-12.40786 -1.12774,-12.53556 -0.57553,-0.0801 -0.58236,-0.14003 -0.62362,-5.47939 -0.0312,-4.03332 -0.0907,-5.46655 -0.2658,-6.39727 -0.1241,-0.6597 -0.22572,-1.63658 -0.22583,-2.17086 -2.8e-4,-1.30647 -0.20765,-1.94386 -0.73004,-2.24366 -0.42106,-0.24167 -0.42106,-0.24167 -0.32973,-2.67608 0.0502,-1.33891 0.0923,-2.97415 0.0935,-3.63385 0.002,-1.09976 -0.0302,-1.53983 -0.21689,-2.96333 -0.0356,-0.27164 -0.13461,-1.19239 -0.21997,-2.04611 -0.0854,-0.85372 -0.21952,-2.06022 -0.29814,-2.68111 -0.49471,-3.90699 -0.73308,-5.56487 -0.86521,-6.01746 -0.0825,-0.28277 -0.10746,-0.58311 -0.0553,-0.66743 0.0521,-0.0843 -0.009,-0.45621 -0.13587,-0.82643 -0.23125,-0.67499 -0.6984,-7.49873 -0.55753,-8.1439 0.0349,-0.15968 0.13109,-1.40159 0.21383,-2.75978 0.0827,-1.3582 0.26869,-3.1362 0.41322,-3.95111 0.1898,-1.07023 0.23048,-1.68179 0.1465,-2.20234 -0.15131,-0.93788 0.0367,-4.26563 0.26454,-4.68291 0.0972,-0.17797 0.25802,-0.75041 0.35743,-1.2721 0.23252,-1.22033 0.70567,-1.95433 1.85182,-2.87281 1.00664,-0.80666 1.20703,-1.20583 0.86639,-1.72571 -0.26616,-0.4062 -0.51061,-2.5146 -0.36615,-3.15801 0.1238,-0.55139 0.89801,-1.52984 1.78584,-2.25696 0.35351,-0.2895 1.15786,-0.95896 1.78745,-1.48766 0.62958,-0.5287 1.5257,-1.21154 1.99137,-1.51742 1.33106,-0.87436 3.17338,-2.202106 4.02166,-2.898436 0.42686,-0.35039 0.99836,-0.75384 1.27,-0.89656 1.37387,-0.721787 2.82222,-2.744093 2.82222,-3.940602 0,-0.16915 0.088,-0.518061 0.19547,-0.775349 0.1075,-0.257288 0.24239,-0.810881 0.29975,-1.230193 0.0574,-0.419311 0.16536,-0.921131 0.23999,-1.115158 0.0746,-0.194028 0.18719,-0.638528 0.25014,-0.987778 0.0629,-0.34925 0.18058,-0.8255 0.26142,-1.058333 0.0808,-0.232834 0.22418,-0.709084 0.31855,-1.058334 0.0944,-0.34925 0.38581,-1.27 0.64763,-2.046111 0.86662,-2.568857 1.01445,-3.171599 1.23887,-5.051227 0.12236,-1.024777 0.29033,-2.201771 0.37327,-2.615551 0.17335,-0.864757 0.51245,-3.59997 0.6765,-5.456555 0.0617,-0.6985 0.15366,-1.365249 0.20432,-1.481666 0.0507,-0.116417 0.18352,-0.783167 0.29525,-1.481667 0.30745,-1.92206 0.8727,-4.35689 1.12451,-4.843836 0.12338,-0.238605 0.22433,-0.530253 0.22433,-0.648123 0,-0.347303 0.65869,-2.263352 1.12274,-3.265932 0.23622,-0.510343 0.42949,-0.98981 0.42949,-1.06546 0,-0.874451 1.34279,-4.425201 1.81351,-4.795477 0.56943,-0.447901 2.63418,-0.378545 4.21096,0.14145 0.85676,0.282547 1.81252,0.464044 3.07719,0.584369 2.77742,0.264245 5.59837,0.191855 6.14454,-0.157677 0.19062,-0.121991 0.63232,-0.333502 0.98157,-0.470042 0.34925,-0.136539 0.9496,-0.441 1.3341,-0.676571 0.8737,-0.535319 1.65727,-0.834319 2.4759,-0.944781 0.82913,-0.111887 1.00888,-1.146528 0.22303,-1.283758 -0.26308,-0.04593 -0.4931,-0.218384 -0.63643,-0.477125 -0.18673,-0.3371 -0.4376,-0.469547 -1.49302,-0.788204 -5.44789,-1.644848 -9.07291,-3.885241 -9.51205,-5.878802 -0.31408,-1.425815 -0.47274,-1.48439 -2.97486,-1.098282 -1.97162,0.30425 -2.93281,0.439886 -3.88055,0.547596 -0.46567,0.05292 -1.00542,0.154305 -1.19945,0.225298 -0.19403,0.07099 -0.73378,0.155998 -1.19944,0.188891 -6.18893,0.437219 -8.03215,0.650537 -9.73667,1.126815 -4.46782,1.248438 -5.87675,1.227483 -7.42291,-0.110377 -0.27965,-0.241992 -0.74096,-0.618053 -1.02512,-0.835703 -0.32873,-0.25177 -0.66102,-0.71374 -0.91351,-1.27 -0.39266,-0.865053 -0.40862,-0.879362 -1.51487,-1.357333 -1.85686,-0.802287 -5.31458,-2.553829 -5.91581,-2.996706 -0.31045,-0.228671 -1.05868,-0.745772 -1.66273,-1.14911 -1.82609,-1.219299 -2.28353,-1.55115 -3.09858,-2.24783 -0.86638,-0.740551 -1.22589,-0.916192 -2.3648,-1.155333 -0.77611,-0.162955 -0.77611,-0.162955 -0.84849,-0.8763 -0.10734,-1.057839 -0.63554,-1.768926 -1.6068,-2.163134 -0.60424,-0.245237 -0.89923,-0.476476 -1.27487,-0.999349 -0.55468,-0.772075 -1.38828,-1.036715 -2.2659,-0.719356 -0.93435,0.337862 -1.32665,0.0048 -1.07362,-0.911663 0.17919,-0.648984 0.0277,-1.031098 -0.61364,-1.548059 -0.64969,-0.523663 -3.23543,-3.111034 -3.88779,-3.89025 -0.99628,-1.190004 -1.77931,-1.38056 -2.80818,-0.683387 -1.17778,0.798068 -1.41301,0.605805 -1.13024,-0.923854 0.37249,-2.014996 -0.88766,-3.194163 -3.79331,-3.549551 -1.03431,-0.126506 -1.4091,0.144752 -2.4729,1.789726 -0.38576,0.596519 -0.78257,0.635466 -1.07885,0.10589 -0.23818,-0.425718 0.39402,-2.657757 0.9976,-3.522119 0.14684,-0.210284 0.26699,-0.417379 0.26699,-0.460206 0,-0.04283 0.26987,-0.462647 0.59972,-0.932913 0.32985,-0.470281 0.75847,-1.10411 0.9525,-1.408515 1.27454,-1.999544 1.80872,-2.602921 2.6784,-3.02538 1.96423,-0.954151 1.97774,-0.964 2.12929,-1.5517562 0.14355,-0.55674 0.64411,-2.0694088 1.00458,-3.0358364 0.8322,-2.2310795 3.05365,-5.4035393 4.1909,-5.98500172 1.21457,-0.6210018 3.47181,-0.9324227 4.15935,-0.5738425 0.2223,0.1159369 0.57375,0.2107918 0.781,0.2107918 0.42872,0 1.96294,0.51004612 2.25242,0.74882022 0.11224,0.092569 0.59179,0.1420848 1.1538,0.1191401 0.66201,-0.027023 1.09473,0.029506 1.38844,0.1813842 0.23468,0.1213697 0.71033,0.2206555 1.057,0.2206555 0.82088,0 1.73182,0.4060048 2.33945,1.042684 0.26746,0.2802467 0.60034,0.5095381 0.73975,0.5095381 0.35262,0 3.50098,2.966607 3.50112,3.2990083 3e-5,0.068199 0.2142,0.3610469 0.47594,0.6507621 0.8697,0.9626603 1.34698,3.0754745 0.77552,3.4330785 -0.43036,0.269324 -1.08125,-0.178266 -2.1967,-1.5105672 -1.72726,-2.0630439 -2.22687,-2.4342648 -4.48141,-3.3298688 -2.13241,-0.84709 -2.96425,0.4327595 -1.26747,1.950099 0.98013,0.8764838 1.03148,0.9252658 1.53943,1.4625738 0.60258,0.637413 0.50409,1.9471362 -0.14643,1.9471362 -0.28744,0 -0.46537,0.537803 -0.32395,0.979128 0.0637,0.198783 0.24416,0.758557 0.40102,1.243937 0.92142,2.851079 -0.75017,2.414961 -3.11213,-0.81194 -0.57621,-0.787216 -1.34872,-1.791885 -1.71668,-2.232603 -0.36796,-0.4407182 -0.66959,-0.8764842 -0.67028,-0.9683612 -10e-4,-0.158073 -0.62974,-0.660428 -1.66538,-1.330988 -0.25557,-0.165481 -0.59154,-0.5495573 -0.7466,-0.8534824 -0.15505,-0.3039392 -0.44285,-0.6138051 -0.63955,-0.688594 -0.19671,-0.074775 -0.45264,-0.2309706 -0.56876,-0.347091 -0.28646,-0.2864555 -0.34221,-0.2732899 -0.86507,0.2042583 -0.63451,0.5795434 -0.69994,2.6917791 -0.10082,3.2546291 0.41483,0.3897062 1.33775,2.0165902 1.34299,2.3673502 0.0139,0.931009 4.18008,5.482237 6.85449,7.487976 0.62871,0.471523 1.74695,1.447095 2.48497,2.167933 1.70938,1.669598 4.20999,3.885706 5.34834,4.739865 0.92349,0.692926 3.56868,3.26946 5.64378,5.49728 1.35931,1.459357 1.46123,1.496045 2.43684,0.87733 2.83527,-1.798066 5.83183,-2.327007 9.68352,-1.709251 1.77289,0.284339 6.68741,-0.170392 8.88907,-0.82248 0.27112,-0.08031 0.71737,-0.146008 0.99166,-0.146008 1.00867,0 1.24591,-0.438446 2.09978,-3.880555 0.80875,-3.260217 0.8606,-3.555873 0.8606,-4.907407 0,-1.057712 0.0667,-1.528092 0.29876,-2.10765 0.51784,-1.29317 1.11216,-3.21341 1.11731,-3.610059 0.003,-0.209846 0.0955,-0.76255 0.2062,-1.228217 0.11069,-0.465667 0.32543,-1.386417 0.4772,-2.046111 0.15178,-0.659694 0.35286,-1.389944 0.44685,-1.622778 0.094,-0.232833 0.22028,-0.645583 0.28062,-0.9172222 0.0603,-0.271639 0.24271,-0.953459 0.40528,-1.515152 0.16256,-0.561707 0.29556,-1.2116647 0.29556,-1.4443711 0,-0.2327063 0.0629,-0.6938856 0.13986,-1.0248335 0.31971,-1.3756639 0.733,-3.6638652 0.92427,-5.11730952 0.11235,-0.8537222 0.29538,-1.90147218 0.40673,-2.32833328 0.11135,-0.4268611 0.27495,-1.157111 0.36354,-1.6227777 0.0886,-0.4656666 0.24923,-1.2276666 0.35698,-1.6933332 0.10774,-0.4656667 0.30067,-1.3546666 0.42873,-1.9755555 1.04321,-5.057919 3.82233,-10.878819 5.5485,-11.621397 0.80717,-0.347236 0.90852,-0.628122 0.4577,-1.268486 -0.98992,-1.406129 -2.47189,-5.04932 -3.53901,-8.700116 -0.65025,-2.224609 -1.32909,-4.387277 -1.43953,-4.586111 -0.39659,-0.714001 -1.43585,-3.408056 -1.49697,-3.880555 -0.0401,-0.310445 -0.16379,-0.744189 -0.27474,-0.963878 -0.67578,-1.338035 -1.057,-3.653637 -1.00287,-6.091677 0.0284,-1.278512 -0.011,-1.637162 -0.22326,-2.033915 -0.43449,-0.812103 -0.2662,-1.719162 0.57973,-3.124676 1.2401,-2.060416 1.45368,-2.794969 1.54955,-5.329224 0.0661,-1.747181 -0.0156,-2.000757 -0.64454,-2.000175 -0.3259,2.82e-4 -2.57366,1.026443 -3.02492,1.380931 -0.0924,0.07262 -0.33205,0.171074 -0.53245,0.21879 -0.82151,0.195603 -4.19089,3.467071 -5.18276,5.032158 -0.12296,0.194028 -0.52857,0.748333 -0.90135,1.23179 -0.37278,0.483456 -0.89099,1.340706 -1.15158,1.905 -1.19286,2.583107 -1.64278,3.601448 -1.64359,3.720044 -4.2e-4,0.07049 -0.10229,0.318665 -0.22625,0.551499 -0.12396,0.232833 -0.31243,0.664793 -0.41882,0.959909 -0.91086,2.52665 -4.20308,4.742376 -5.91893,3.983546 -0.46169,-0.204182 -0.96735,-0.340889 -1.12367,-0.303795 -0.75075,0.178142 -3.0196,-0.145044 -3.5584,-0.506879 -0.45019,-0.30233 -0.81776,-0.387872 -2.29972,-0.535189 -1.09587,-0.108938 -2.0311,-0.285154 -2.46945,-0.465294 -0.38805,-0.159474 -1.21355,-0.338187 -1.83444,-0.39714 -1.44936,-0.137619 -2.33083,-0.350891 -4.26486,-1.031882 -0.72635,-0.255757 -1.52491,-0.397177 -2.77855,-0.49207 -0.9676,-0.07324 -2.09641,-0.227312 -2.50848,-0.342381 -2.60525,-0.727504 -3.87703,-0.908197 -4.73845,-0.67323 -3.25285,0.88728 -5.14841,-0.118841 -6.08443,-3.229484 -0.17516,-0.582083 -0.38835,-1.280583 -0.47376,-1.552222 -1.1991,-3.813515 1.54163,-10.564547 3.81637,-9.400575 0.20958,0.10724 0.65724,0.240888 0.9948,0.296997 0.367,0.061 0.70739,0.22211 0.84667,0.400728 0.50622,0.649231 1.4109,1.454705 2.04701,1.822535 1.00145,0.579089 1.43148,1.591561 1.71717,4.042947 0.25612,2.197706 0.32537,2.361505 1.45314,3.43709 0.9142,0.871907 1.15177,0.942432 1.92789,0.572328 0.62098,-0.296128 0.9528,-0.194125 2.61159,0.802836 1.26759,0.761848 1.85565,0.940011 2.40868,0.729749 0.54132,-0.205809 1.70905,0.06027 3.08795,0.70362 0.86925,0.405562 1.52333,0.602597 2.33615,0.703741 0.62089,0.07726 1.31939,0.205896 1.55222,0.285856 0.23283,0.07996 0.64558,0.191938 0.91722,0.248841 0.27164,0.0569 0.71188,0.217061 0.97831,0.355906 0.46451,0.242076 1.15399,0.29229 2.62002,0.190816 0.31045,-0.02149 0.70433,0.01103 0.87531,0.07227 0.26713,0.09568 0.35269,0.02934 0.60831,-0.471725 0.1636,-0.320684 0.97621,-1.269755 1.80581,-2.109046 2.55104,-2.580863 3.71793,-3.841225 5.80648,-6.271617 2.89159,-3.364872 5.47426,-5.618327 8.74255,-7.628122 0.12307,-0.07568 0.46105,-0.290112 0.75107,-0.476508 0.29001,-0.186398 1.24251,-0.673735 2.11666,-1.08297 2.16619,-1.014101 3.15474,-2.352257 3.90639,-5.287919 0.36976,-1.444133 0.60615,-1.717231 1.59486,-1.842538 1.76917,-0.22422 2.8627,-0.462523 3.58184,-0.780562 0.42313,-0.187129 0.95026,-0.340233 1.1714,-0.340233 0.22115,0 0.64796,-0.103213 0.94848,-0.229362 0.81641,-0.342702 2.67235,-0.193988 3.82631,0.306598 1.4532,0.6304 1.34649,1.513184 1.31429,-10.872235 -0.008,-3.084518 0.0666,-4.912422 0.36862,-9.025447 0.0397,-0.540162 0.16162,-1.109916 0.27103,-1.266119 0.10941,-0.156205 0.19893,-0.579624 0.19893,-0.940932 0,-0.361309 0.0933,-0.880289 0.20739,-1.153291 0.11407,-0.273002 0.26947,-0.836383 0.34534,-1.251956 0.3021,-1.654885 0.84194,-3.427007 1.77766,-5.835588 0.36182,-0.931333 0.7262,-1.883833 0.80973,-2.116663 0.0835,-0.23284 0.23036,-0.61384 0.3263,-0.84667 0.0959,-0.23283 0.28059,-0.74083 0.41036,-1.12889 0.12976,-0.38806 0.37657,-0.89606 0.54846,-1.12889 0.17189,-0.23283 0.46891,-0.74083 0.66004,-1.12889 0.49096,-0.99684 1.51426,-2.56913 2.15823,-3.31611 0.30109,-0.34925 0.95507,-1.4605 1.45329,-2.46945 1.36718,-2.76866 1.80099,-3.54543 2.79774,-5.00944 0.92959,-1.36539 2.51584,-3.5191 2.89879,-3.9358 0.11642,-0.12668 0.46513,-0.54707 0.77492,-0.93421 0.64977,-0.812 1.50855,-1.68852 3.11301,-3.17731 2.415,-2.2409 2.49242,-2.30071 4.30135,-3.32305 0.14796,-0.0836 0.39955,-0.31799 0.5591,-0.52082 0.15955,-0.20284 0.41342,-0.40794 0.56415,-0.45578 0.15073,-0.0478 0.41859,-0.34413 0.59523,-0.65842 0.32661,-0.58113 1.35365,-1.24683 1.9236,-1.24683 0.1483,0 0.35217,-0.0994 0.45303,-0.22097 0.30015,-0.36166 0.93045,-0.62549 1.50221,-0.6288 0.2949,-0.002 0.82193,-0.13429 1.17118,-0.29463 0.59484,-0.27311 0.71342,-0.28049 1.87514,-0.11678 1.2481,0.17589 1.83503,0.11927 3.3156,-0.31982 0.25495,-0.0756 0.76309,-0.0963 1.12922,-0.0459 0.36611,0.0503 0.95792,0.0261 1.3151,-0.054 2.92723,-0.656 10.14494,2.12405 10.14494,3.90755 0,0.41073 0.56907,1.16001 0.88103,1.16001 0.0593,0 0.40919,0.28943 0.77755,0.64318 0.36837,0.35374 0.89257,0.75997 1.1649,0.90273 0.51662,0.27082 2.1135,1.72928 2.11799,1.93441 0.003,0.1212 1.54099,1.76701 2.04445,2.18728 0.15471,0.12915 0.6623,0.75512 1.12797,1.39104 0.46566,0.63593 1.05304,1.37375 1.30528,1.63961 0.25223,0.26586 0.45861,0.55336 0.45861,0.63889 0,0.0855 0.14287,0.29415 0.3175,0.4636 0.31051,0.30132 0.51587,0.6181 1.23801,1.90966 0.93837,1.67832 1.83128,3.54082 1.83121,3.81969 -3e-5,0.12074 0.15869,0.4347 0.35272,0.69769 0.19403,0.26299 0.35278,0.55301 0.35278,0.64448 0,0.28861 0.5867,1.53007 0.86996,1.84087 0.14945,0.16397 0.5808,0.79897 0.95856,1.41111 0.37775,0.61214 0.82527,1.33264 0.99448,1.60111 0.1692,0.26847 0.42308,0.83997 0.56417,1.27 0.32543,0.99188 0.89034,2.32812 1.08686,2.57087 0.0831,0.10261 0.19615,0.53582 0.2513,0.962677 0.0551,0.426861 0.22502,1.061861 0.37747,1.411111 0.15247,0.34925 0.43715,1.143 0.63262,1.763888 0.19548,0.620889 0.44159,1.329285 0.54693,1.574215 0.10534,0.244928 0.2601,0.848178 0.34392,1.340555 0.0838,0.492376 0.27662,1.43498 0.42844,2.094675 0.15183,0.659694 0.35286,1.667937 0.44671,2.240541 0.22011,1.342762 0.22601,8.448958 0.009,10.530014 -0.48076,4.605086 -0.61648,6.009912 -0.65877,6.818996 -0.0256,0.490782 -0.12674,1.610819 -0.22461,2.488973 -0.23966,2.150291 -0.33857,2.028348 1.58155,1.949928 1.89421,-0.07736 2.48529,0.01526 5.69111,0.891767 1.41836,0.387798 1.89926,0.436999 2.6811,0.274302 0.99035,-0.206087 1.7134,0.715807 1.84044,2.346556 0.20189,2.591679 1.03206,4.048259 2.64623,4.643002 1.27367,0.469283 4.62115,2.216047 6.04419,3.153946 1.60792,1.059751 3.96362,3.229864 5.83202,5.372528 1.39785,1.603035 6.395511,6.687583 7.534251,7.665215 0.9646,0.828143 3.24478,0.857426 3.67837,0.04724 0.29269,-0.546892 2.2106,-1.969029 2.95264,-2.189391 0.93188,-0.276738 1.61879,-0.726495 3.59319,-2.352607 0.37289,-0.307117 0.84914,-0.595777 1.05834,-0.641468 1.55569,-0.339782 2.42478,-0.936842 3.50459,-2.407617 0.78579,-1.070306 0.9503,-1.179705 1.77396,-1.179705 0.76086,0 1.1881,-0.286218 1.31673,-0.882119 0.26864,-1.244675 0.74827,-1.727702 1.56362,-1.574741 0.60689,0.113853 0.71025,-0.122656 0.48616,-1.112389 -0.0915,-0.404051 -0.24929,-1.115639 -0.35068,-1.581306 -0.10139,-0.465667 -0.28382,-1.068917 -0.4054,-1.340556 -1.39403,-3.114728 -0.52658,-4.589816 1.63163,-2.774554 0.84034,0.70681 1.07871,0.583147 0.74883,-0.388485 -0.70809,-2.085656 0.10466,-4.810167 1.34169,-4.49759 0.39897,0.100814 1.92676,1.465834 2.27304,2.030878 0.24911,0.40648 0.74892,0.750797 0.92863,0.63973 0.0571,-0.0353 0.0603,-0.847864 0.007,-1.805692 -0.30274,-5.444008 2.79228,-5.307718 4.49068,0.197749 0.20932,0.678537 0.40895,1.205344 0.44361,1.170685 0.15891,-0.158911 0.47731,-2.585969 0.46352,-3.533276 -0.0212,-1.45866 1.92281,-2.955723 2.95294,-2.274009 0.30669,0.202955 0.6436,0.369009 0.74869,0.369009 0.1879,0 0.78015,0.676089 1.27387,1.454191 0.13814,0.217722 0.37064,0.769836 0.51666,1.22692 0.14602,0.457085 0.37164,0.993065 0.50138,1.191068 0.66926,1.021437 -0.47512,5.772844 -1.76933,7.346154 -0.1277,0.155222 -0.33591,0.449665 -0.46268,0.654315 -0.12679,0.204651 -0.47188,0.517949 -0.76688,0.696217 -0.29501,0.178267 -0.88563,0.62171 -1.31249,0.985427 -0.42686,0.363718 -1.22061,0.885986 -1.76389,1.160595 -0.54328,0.274609 -1.21003,0.732916 -1.48167,1.018455 -0.51751,0.544003 -1.37903,1.05888 -1.77177,1.05888 -0.12693,0 -0.39933,0.09404 -0.60534,0.208975 -0.20601,0.114938 -1.0413,0.516625 -1.85622,0.892641 -0.81492,0.376015 -1.90977,0.977367 -2.43299,1.336336 -0.52323,0.35897 -1.41223,0.921421 -1.97556,1.249889 -0.56333,0.32847 -1.20158,0.773921 -1.41834,0.989892 -0.45356,0.451894 -0.63302,0.559684 -2.15624,1.295014 -0.61519,0.296984 -1.27729,0.626806 -1.47131,0.73294 -0.19403,0.106134 -0.67892,0.356459 -1.07753,0.556281 -0.39862,0.19982 -0.97012,0.559541 -1.27,0.799376 -0.61703,0.493478 -2.78198,1.601785 -3.38957,1.735234 -0.22076,0.04848 -0.77174,0.404205 -1.22442,0.790487 -0.45267,0.386282 -0.9924,0.742988 -1.19938,0.792679 -0.97476,0.234019 -2.65919,1.17615 -3.2801,1.834622 -0.85136,0.902859 -1.72594,1.40466 -2.62263,1.504768 -0.69945,0.07809 -1.7135,0.544235 -2.90102,1.333554 -1.56964,1.043305 -6.459801,-3.433547 -6.459801,-5.913823 0,-0.188389 -0.11579,-0.562328 -0.25733,-0.830974 -0.14152,-0.268645 -0.6052,-1.155197 -1.03038,-1.970114 -0.42519,-0.814916 -0.99202,-1.778549 -1.25963,-2.141406 -0.2676,-0.362856 -0.6453,-0.890178 -0.83932,-1.171827 -1.534,-2.226732 -2.71133,-3.466079 -4.23334,-4.456357 -0.58208,-0.378725 -1.40758,-0.938054 -1.83444,-1.242956 -0.85536,-0.610967 -1.30322,-0.823537 -2.70901,-1.285786 -1.08915,-0.35813 -1.1739,-0.333402 -1.31598,0.383969 -0.14757,0.745188 -0.15103,4.189235 -0.005,5.0951 0.0955,0.592725 0.0791,0.782557 -0.0761,0.884812 -0.16191,0.106629 -0.1423,0.176768 0.1084,0.387643 0.30353,0.255304 0.56772,1.258764 0.64663,2.456145 0.0399,0.605027 0.21357,0.728355 0.44302,0.314552 0.0861,-0.155222 0.17756,-0.313872 0.20331,-0.352556 0.0257,-0.03868 0.13686,0.05283 0.24694,0.203359 0.26859,0.36732 0.25259,0.928723 -0.0383,1.34403 -0.15886,0.226815 -0.27291,0.790581 -0.34177,1.689454 -0.24193,3.157948 -0.3046,3.655647 -0.57855,4.594602 -0.15851,0.543277 -0.36782,1.083027 -0.46513,1.199444 -0.0973,0.116417 -0.24825,0.630998 -0.3354,1.143514 -0.19995,1.175938 -0.42065,1.867969 -1.07542,3.372041 -0.28717,0.659695 -0.57415,1.421695 -0.63772,1.693334 -0.20632,0.881618 -1.23271,4.188828 -1.3929,4.488127 -0.0857,0.160104 -0.15578,0.450409 -0.15578,0.645122 0,0.755303 -1.33985,4.410016 -1.95886,5.343198 -0.8465,1.276118 -0.83977,1.678621 0.0443,2.646885 0.76273,0.835408 2.90237,4.647138 2.90237,5.17053 0,0.09791 0.22568,0.691313 0.50151,1.318668 0.46523,1.058116 0.71139,1.8384318 1.26924,4.0235796 0.11887,0.4656666 0.27443,1.0689166 0.3457,1.3405555 0.0712,0.2716389 0.19398,0.8113888 0.27275,1.1994444 0.287,1.4140504 0.72473,3.3990208 0.8591,3.8958405 0.0758,0.28004488 0.23022,1.29604618 0.34328,2.2577749 0.11306,0.9617286 0.27732,2.0026064 0.36501,2.3130509 0.0877,0.3104444 0.21247,0.9136944 0.27728,1.3405555 0.20512,1.3511247 0.40779,2.1532566 0.85566,3.3866665 0.23954,0.659694 0.48743,1.523605 0.55083,1.9198022 0.0634,0.396198 0.28531,1.221698 0.4931,1.834445 0.20778,0.612747 0.46498,1.558586 0.57157,2.101864 0.10658,0.543278 0.30075,1.337028 0.4315,1.763889 0.13074,0.426861 0.25051,1.063667 0.26618,1.415104 0.0253,0.567027 0.12429,1.095036 0.6566,3.500854 0.0786,0.355473 0.0951,1.516704 0.0392,2.769884 -0.0887,1.987267 -0.0729,2.217702 0.19926,2.915708 0.16253,0.416842 0.33088,0.929047 0.37409,1.13823 0.0432,0.209198 0.32241,0.66208 0.62042,1.006405 0.64763,0.74827 0.85554,1.881039 0.52287,2.848694 -0.329,0.957044 -0.01,1.244501 1.62847,1.467118 1.88482,0.256103 3.01348,0.453235 3.44365,0.601472 0.48581,0.167429 1.87318,0.440084 2.18722,0.429867 0.11642,-0.0038 0.33867,-0.01157 0.49389,-0.01726 0.15522,-0.0056 0.77252,0.02743 1.37177,0.07366 0.608921,0.04696 1.269141,0.02143 1.496641,-0.05787 0.2504,-0.08731 0.6554,-0.09552 1.05235,-0.02137 0.3549,0.06631 1.26892,0.149818 2.03115,0.185576 2.13044,0.09996 3.76676,0.519119 5.34231,1.368481 0.97567,0.525963 1.43588,0.700772 1.68217,0.638951 0.26758,-0.06715 0.40263,0.0042 0.64066,0.338469 0.45115,0.633575 1.89322,0.175232 2.26383,-0.719525 0.0932,-0.225016 0.25694,-0.409124 0.36384,-0.409124 0.10691,0 0.63049,-0.22225 1.16351,-0.493889 0.533,-0.271639 1.03331,-0.493889 1.11177,-0.493889 0.0785,0 0.22981,-0.10596 0.33634,-0.235472 0.10651,-0.129511 0.60487,-0.422388 1.10745,-0.650846 0.5026,-0.228459 1.04235,-0.532878 1.19945,-0.676501 0.94351,-0.862485 2.72365,-2.22758 3.29845,-2.529403 0.36952,-0.194027 0.8515,-0.495652 1.07105,-0.670277 0.21957,-0.174625 0.48905,-0.3175 0.59885,-0.3175 0.7918,0 1.6809,-1.135973 1.54382,-1.972508 -0.2512,-1.533214 -0.39595,-1.972945 -0.92995,-2.82527 -0.0729,-0.116417 -0.2331,-0.439208 -0.35589,-0.71731 -0.12281,-0.278102 -0.66042,-0.950637 -1.19468,-1.494508 -0.67313,-0.685235 -1.01728,-1.15934 -1.12089,-1.544094 -0.089,-0.33044 -0.36499,-0.756807 -0.68176,-1.053112 -0.7725,-0.722602 -0.96583,-0.850336 -1.48075,-0.978295 -0.25442,-0.06323 -0.81185,-0.250359 -1.23871,-0.415855 -0.61038,-0.236629 -1.07746,-0.300115 -2.18723,-0.297292 -0.77611,0.002 -1.67909,-0.0079 -2.00663,-0.02207 -0.43693,-0.01884 -0.68118,0.05423 -0.91722,0.27439 -0.38199,0.356292 -3.56877,0.530451 -3.94795,0.215759 -0.67273,-0.55832 -1.26049,-0.39758 -2.63904,0.721713 -0.72227,0.586429 -1.6083,1.206443 -1.96895,1.377809 -0.81849,0.388916 -1.57169,0.970491 -2.39033,1.845677 -0.96765,1.034499 -1.46757,1.300028 -2.07207,1.100511 -0.27046,-0.08925 -0.5406,-0.133463 -0.60032,-0.09826 -0.23328,0.137527 -0.743601,-0.184855 -0.743601,-0.469744 0,-0.161587 -0.10129,-0.489656 -0.22508,-0.729037 -0.21304,-0.411974 -0.20898,-0.455027 0.0758,-0.80439 0.16548,-0.203016 0.40964,-0.550742 0.542581,-0.772738 0.13294,-0.221996 0.38315,-0.602996 0.55599,-0.846667 0.17287,-0.24367 0.42107,-0.645893 0.55157,-0.893812 0.1305,-0.247918 0.41311,-0.523606 0.62801,-0.612619 0.21491,-0.08901 0.50645,-0.290336 0.64788,-0.447365 0.14144,-0.157042 0.4032,-0.341376 0.58171,-0.409631 0.1785,-0.06827 0.3911,-0.314974 0.47241,-0.548259 0.0813,-0.233271 0.23979,-0.424138 0.35214,-0.424138 0.35388,0 0.897,-0.665395 0.897,-1.098959 0,-0.578993 -0.0743,-0.603391 -0.96558,-0.316865 -0.43907,0.141153 -1.14756,0.366748 -1.57442,0.501311 -0.42686,0.134578 -0.9556,0.395394 -1.17499,0.5796 -0.21938,0.184206 -0.49256,0.334913 -0.60706,0.334913 -0.11451,0 -0.2746,0.1905 -0.35575,0.423333 -0.0812,0.232834 -0.208681,0.423334 -0.283341,0.423334 -0.24598,0 -1.67108,1.446784 -1.67108,1.696522 0,0.304475 -0.23975,0.509806 -0.74265,0.636016 -0.52267,0.131191 -1.09179,-0.24281 -1.09179,-0.717437 0,-0.194677 -0.0953,-0.390511 -0.21167,-0.435187 -0.32792,-0.125828 -0.25956,-1.066842 0.14111,-1.942803 0.19403,-0.42418 0.35278,-0.818854 0.35278,-0.877034 0,-0.05818 0.11799,-0.236869 0.2622,-0.397087 0.14421,-0.160231 0.47946,-0.68326 0.74501,-1.162304 0.52892,-0.954179 1.74856,-2.025946 2.640401,-2.32029 0.27852,-0.09192 0.80986,-0.406992 1.18077,-0.700179 0.7717,-0.609995 2.05239,-1.1372852 2.48654,-1.023747 0.16651,0.04355 0.58853,-0.06762 0.97016,-0.2555382 0.83295,-0.410139 3.47891,-0.447294 4.60591,-0.06467 0.54449,0.18487 1.17406,0.209042 3.82732,0.146995 2.63326,-0.06158 3.28516,-0.03707 3.81692,0.1434682 0.35271,0.119747 0.85917,0.21772 1.12546,0.21772 0.70562,0 2.16898,0.652569 3.07266,1.370217 0.21601,0.171535 0.61312,0.35323 0.88248,0.403762 0.35421,0.06645 0.65019,0.28352 1.06953,0.78438 0.5572,0.665508 1.89239,1.674975 2.21543,1.674975 0.19465,0 1.72032,1.477927 1.72032,1.666494 0,0.234992 0.9963,1.028304 1.63555,1.302314 0.65203,0.279485 0.84791,0.563753 1.26029,1.828969 0.19232,0.590014 0.44649,0.962942 1.06008,1.55527 0.61563,0.594332 0.9003,1.012783 1.19995,1.763889 0.53606,1.343646 1.01513,2.043063 1.3994,2.043063 0.1699,0 0.55834,0.188736 0.86321,0.419411 0.30485,0.230674 0.65766,0.421174 0.78401,0.423333 0.38732,0.0066 1.21696,0.40585 1.70531,0.820632 0.25512,0.21669 0.63849,0.469462 0.85192,0.56172 0.21343,0.09226 0.38806,0.25544 0.38806,0.362614 0,0.107188 0.22501,0.410167 0.50002,0.673311 0.27503,0.26313 0.66629,0.827673 0.86947,1.254535 0.20319,0.426861 0.50481,0.914526 0.67027,1.083705 0.16546,0.169178 0.39203,0.486678 0.5035,0.705555 0.11147,0.218878 0.34686,0.594487 0.52309,0.834686 0.89719,1.222841 1.7309,5.224526 1.31589,6.316091 -0.3531,0.928737 -1.28783,0.764173 -1.94358,-0.342194 -0.54807,-0.924716 -0.5584,-0.947053 -0.66677,-1.440829 -0.13176,-0.600315 -0.8203,-0.946969 -1.88216,-0.947604 -1.09185,0 -1.11414,0.0419 -0.87971,1.677501 0.18957,1.322535 0.04,1.978984 -0.49801,2.18543 -0.33995,0.130457 -0.31484,0.145937 -1.11656,-0.688453 -0.86075,-0.895844 -1.27108,-0.983446 -1.94603,-0.415516 -0.2357,0.198332 -0.73585,0.516312 -1.11145,0.706642 -0.90644,0.459331 -1.10518,0.802132 -1.17474,2.026342 -0.10519,1.851152 -0.83269,2.244922 -1.97535,1.069198 -0.80709,-0.830438 -1.93793,-0.660484 -2.99921,0.450723 -0.17091,0.178972 -0.45666,0.326362 -0.635,0.327548 -0.49712,0.0034 -0.71371,0.202819 -1.10178,1.014927 -0.35687,0.746802 -0.35687,0.746802 -1.47464,0.780359 -0.99561,0.0299 -1.23671,0.09545 -2.206,0.599722 -0.59853,0.31139 -1.26904,0.568141 -1.49002,0.570568 -0.22098,0.0024 -0.65579,0.160853 -0.96623,0.352059 -0.31045,0.191205 -0.7615,0.34798 -1.00234,0.348375 -0.24085,0 -0.87585,0.16263 -1.41112,0.360524 -0.58565,0.216521 -1.35271,0.377487 -1.9262,0.404199 -1.24758,0.05812 -2.52955,0.680071 -3.13923,1.522998 -1.04013,1.438035 -2.7909,2.337435 -4.02167,2.065994 -0.34925,-0.07703 -0.85699,-0.175994 -1.12832,-0.219908 -0.27133,-0.04391 -0.62058,-0.159441 -0.77611,-0.256723 -0.15554,-0.09728 -0.59499,-0.220994 -0.97656,-0.274899 -0.38158,-0.05392 -1.04256,-0.252278 -1.46887,-0.440817 -0.54648,-0.241667 -0.90979,-0.317514 -1.23173,-0.257118 -0.29641,0.05561 -0.57322,0.01058 -0.78891,-0.128101 -0.37649,-0.242217 -1.539211,-0.495526 -4.283391,-0.933168 -0.54328,-0.08663 -1.23135,-0.284409 -1.52905,-0.43949 -0.36525,-0.190275 -0.92028,-0.303135 -1.70687,-0.347077 -0.64108,-0.0358 -1.43737,-0.16098 -1.76953,-0.278173 -0.33216,-0.117192 -0.99716,-0.213077 -1.47778,-0.213077 -0.48064,0 -1.18703,-0.09078 -1.56977,-0.201719 -1.95103,-0.565531 -2.58996,-0.45044 -3.96437,0.714079 -0.40067,0.339485 -1.13933,0.801582 -1.64149,1.026894 -0.50215,0.225298 -0.95058,0.470436 -0.99651,0.544773 -0.046,0.07432 -0.60903,0.337355 -1.25131,0.584525 -0.64226,0.247156 -1.43075,0.569171 -1.75219,0.715588 -0.32144,0.146431 -0.82944,0.310798 -1.12889,0.365281 -0.89085,0.16208 -2.41287,1.038267 -2.15207,1.238899 0.0305,0.02342 0.46814,0.253647 0.97261,0.511584 2.08377,1.065459 2.02585,1.046536 2.70737,0.884738 0.56579,-0.134323 1.73002,-0.05564 2.44319,0.165128 0.2918,0.09033 3.27256,-0.221121 4.51555,-0.471805 0.38806,-0.07827 1.18181,-0.207179 1.76389,-0.286483 0.58208,-0.07929 1.34729,-0.217072 1.70043,-0.306169 1.95,-0.491984 3.07542,0.09871 3.7983,1.993575 0.25167,0.659695 0.50837,1.262945 0.57044,1.340556 0.17471,0.218454 1.54935,3.591263 1.7541,4.303888 0.10036,0.34925 0.42201,1.36525 0.71478,2.257778 0.29277,0.892528 0.61395,1.993703 0.71373,2.447064 0.0998,0.453362 0.20209,0.842857 0.22733,0.865533 0.0938,0.08429 1.94272,0.920736 2.03523,0.920736 0.0529,0 0.40571,0.1905 0.784111,0.423334 0.37841,0.232833 0.7556,0.423333 0.83822,0.423333 0.0826,0 0.54202,0.151088 1.02092,0.335731 0.47892,0.184658 1.34699,0.479129 1.92908,0.654389 0.58208,0.17526 1.19312,0.401348 1.35787,0.502412 0.16474,0.101078 0.70167,0.287966 1.19318,0.415332 0.49151,0.127367 1.07178,0.323681 1.28948,0.436259 1.37221,0.709606 6.67796,1.782135 9.67317,1.955391 0.64156,0.03711 1.27738,0.126831 1.41293,0.199376 0.13557,0.07254 0.76117,0.166525 1.39024,0.20883 0.62908,0.0423 1.35849,0.168713 1.62095,0.28091 0.26245,0.112198 0.76293,0.317571 1.11218,0.456382 1.11126,0.441678 1.90899,1.477758 2.06373,2.680349 0.10455,0.812518 0.41603,1.391271 1.32281,2.457972 0.36286,0.426861 0.6993,0.934861 0.74762,1.128889 0.0483,0.194027 0.32204,0.733777 0.60827,1.199444 0.28623,0.465667 0.63894,1.068917 0.78379,1.340556 0.14486,0.271638 0.31878,0.589138 0.38649,0.705555 0.18317,0.314932 0.68187,1.552787 0.85276,2.116667 0.0823,0.271638 0.40301,0.811388 0.71265,1.199444 1.33889,1.677924 1.44035,2.149334 0.63577,2.953921 -0.27164,0.271639 -0.49389,0.52475 -0.49389,0.562455 0,0.195876 1.20267,2.313079 1.56061,2.74732 0.22822,0.27686 0.41494,0.575225 0.41494,0.663039 0,0.08781 0.22163,0.438474 0.49252,0.779244 0.79172,0.995962 -0.16033,2.65921 -1.02638,1.793155 -0.29447,-0.294471 -0.29764,-0.06128 -0.008,0.571077 0.55507,1.210789 -0.004,1.9835 -1.42424,1.970136 -1.40638,-0.01326 -1.56763,0.251844 -1.02046,1.677484 0.28609,0.745406 0.3141,2.851006 0.0484,3.638836 -0.32965,0.97746 -0.44877,1.4512 -0.44877,1.78459 0,0.79154 -0.55962,1.03797 -1.93825,0.85351 -1.67801,-0.22451 -1.6211,-0.33039 -1.31242,2.4419 0.1515,1.36055 0.20246,2.35222 0.12826,2.49545 -0.0677,0.13071 -0.12315,0.37915 -0.12315,0.55208 0,0.17293 -0.1919,0.61347 -0.42644,0.97896 -0.55668,0.86754 -0.66086,3.24204 -0.19124,4.35922 0.3372,0.80214 0.41636,3.15407 0.14205,4.21985 -0.31126,1.20935 -0.29671,2.51438 0.0367,3.28678 0.14662,0.33971 0.31032,0.93515 0.36377,1.32321 0.0535,0.38806 0.1875,0.8462 0.29786,1.01809 0.29746,0.46327 0.25251,1.39267 -0.0897,1.85558 -0.47222,0.6387 -0.42995,2.90908 0.0678,3.64154 0.20007,0.29442 0.36376,0.60088 0.36376,0.68102 0,0.0802 0.127,0.38268 0.28222,0.6723 0.15522,0.2896 0.28222,0.70184 0.28222,0.91606 0,0.21422 0.0607,0.6013 0.13499,0.86019 0.0795,0.27735 0.0862,0.74065 0.0162,1.12795 -0.16186,0.89532 0.0321,4.11832 0.31559,5.24338 0.1271,0.50447 0.42983,1.77447 0.67272,2.82222 0.2429,1.04775 0.6618,2.4765 0.9309,3.175 0.2691,0.6985 0.54994,1.47133 0.62409,1.71738 0.0742,0.24606 0.35803,0.81756 0.63084,1.27 0.27281,0.45245 0.53268,0.98137 0.57751,1.1754 0.0448,0.19403 0.19537,0.60678 0.33453,0.91722 1.0355,2.30992 1.19689,2.73936 1.4053,3.73945 0.23328,1.1194 0.53398,1.75172 0.96482,2.02886 0.20764,0.13358 0.63154,0.42812 0.94198,0.65453 0.92442,0.67422 1.75586,0.60304 2.49939,-0.21395 0.7532,-0.82762 1.94561,-0.5241 1.94561,0.49522 0,0.16469 0.065,0.42082 0.14436,0.56917 0.10468,0.19561 0.0853,0.41104 -0.0705,0.78407 -0.11821,0.28288 -0.21492,0.70132 -0.21492,0.92985 0,2.04684 -3.05811,2.87929 -5.3936,1.46819 -0.56483,-0.34126 -1.30402,-0.70241 -1.64266,-0.80256 -0.37848,-0.11192 -0.84991,-0.41629 -1.22358,-0.78995 -1.02116,-1.02116 -1.25381,-0.84861 -1.63504,1.21265 -0.69051,3.73369 -4.4727,3.99714 -4.54559,0.31664 -0.0111,-0.56268 0.12894,-0.86807 0.93867,-2.04631 0.58691,-0.85401 0.6357,-1.78903 0.12027,-2.30447 -0.44582,-0.44581 -0.83527,-1.675 -0.76439,-2.4126 0.0385,-0.40066 -0.005,-0.82827 -0.10188,-1.00998 -0.17748,-0.33161 -0.26982,-1.18076 -0.36919,-3.39492 -0.0331,-0.7373 -0.12632,-1.8168 -0.20719,-2.39889 -0.0809,-0.58208 -0.20042,-1.47108 -0.26567,-1.97555 -0.27046,-2.09116 -0.60578,-3.59474 -0.94735,-4.24801 -0.1989,-0.38035 -0.32955,-0.77512 -0.29035,-0.87726 0.0392,-0.10214 0.01,-0.46711 -0.065,-0.81105 -0.0749,-0.34395 -0.19216,-1.05901 -0.26054,-1.58903 -0.47201,-3.65772 -1.79007,-2.38384 -1.72713,1.66924 0.0159,1.02779 -0.0326,1.359 -0.2545,1.73668 -0.15082,0.25667 -0.27421,0.70572 -0.27421,0.99791 0,0.29218 -0.0912,0.81243 -0.20269,1.15611 -0.11147,0.34366 -0.26979,1.4821 -0.35179,2.52985 -0.13733,1.75459 -0.11965,3.06139 0.0894,6.61276 0.086,1.46059 0.0357,1.56566 -0.75161,1.56953 -0.40454,0.002 -0.44797,0.0484 -0.53103,0.56781 -0.16777,1.04919 -0.38601,4.85612 -0.36396,6.34879 0.0728,4.92802 0.12624,4.67522 -1.06333,5.03064 -0.35373,0.10569 -0.43769,0.21872 -0.51072,0.68765 -0.0481,0.30864 -0.19068,1.1644 -0.31693,1.90171 -0.12626,0.73731 -0.2298,1.69023 -0.23011,2.1176 0,0.42737 -0.0684,0.99887 -0.15142,1.27 -0.0926,0.30248 -0.16297,2.48304 -0.1822,5.64351 -0.0376,6.17993 0.18251,5.52118 -2.84195,8.50364 -1.67352,1.65028 -3.17163,1.84534 -3.17693,0.41364 -0.005,-1.33342 -0.44406,-1.52969 -1.08718,-0.48589 -1.50179,2.43745 -1.87422,3.15926 -1.87422,3.63237 0,1.40913 -0.71493,2.48914 -3.07199,4.64072 -0.63514,0.57977 -1.12109,1.98696 -1.2022,3.48122 -0.0729,1.3427 -0.24666,1.78054 -1.31109,3.30323 -0.41049,0.58721 -0.81737,1.00047 -1.102201,1.11946 -0.51265,0.21421 -0.97181,0.82771 -0.95043,1.26991 0.13744,2.84288 -0.65434,4.83031 -2.19522,5.51014 -0.78328,0.3456 -1.35355,2.537 -1.1168,4.2915 0.1028,0.76179 -0.48312,2.12628 -1.19069,2.77284 -1.06965,0.97742 -1.53683,1.5367 -1.62716,1.94799 -0.0527,0.24012 -0.31141,0.94011 -0.57483,1.55554 -0.54356,1.26994 -1.27022,3.28622 -1.45458,4.03603 -0.0681,0.27707 -0.26243,0.85302 -0.43176,1.27988 -1.24481,3.13778 -1.87465,8.85747 -1.40053,12.71856 0.35916,2.92485 0.35109,3.07489 -0.2214,4.1164 -0.57574,1.0474 -0.40913,2.53024 0.41987,3.73705 0.19803,0.28825 0.75808,1.12735 1.24459,1.86466 1.19328,1.80842 2.33446,2.70899 3.37274,2.66162 0.80943,-0.0369 1.00096,0.1431 0.79148,0.74401 -0.71061,2.03843 -3.91884,1.18316 -6.42308,-1.7123 -0.53757,-0.62155 -1.5925,-2.2499 -1.5925,-2.45813 0,-0.0861 -0.11754,-0.37792 -0.26121,-0.6484 -0.40448,-0.76155 -0.73125,-1.86216 -0.83958,-2.82787 -0.2046,-1.82386 -0.8245,-1.41468 -2.25648,1.4894 -1.38772,2.81429 -1.42247,3.21293 -0.2738,3.14029 0.75284,-0.0476 0.82166,0.21063 0.20821,0.78127 -3.52069,3.27498 -4.46786,0.19159 -1.76602,-5.74909 0.7028,-1.54531 0.7028,-1.54531 0.73605,-4.23333 0.0228,-1.84694 0.10374,-2.9971 0.25854,-3.67581 0.1239,-0.54327 0.29319,-1.33702 0.37618,-1.76389 0.13088,-0.67314 0.52864,-1.6942 1.56667,-4.02166 0.13846,-0.31045 0.40949,-0.9772 0.60229,-1.48167 0.19281,-0.50447 0.80817,-2.02847 1.36746,-3.38667 0.5593,-1.35819 1.0691,-2.65994 1.1329,-2.89277 0.0638,-0.23284 0.24374,-0.77259 0.39985,-1.19945 0.15611,-0.42686 0.45328,-1.34761 0.66038,-2.04611 0.20708,-0.6985 0.56465,-1.73657 0.79458,-2.30683 0.57683,-1.43061 0.292,-2.00657 -0.44824,-0.90635 -2.83231,4.2096 -10.27546,12.01365 -13.83514,14.50596 -0.42342,0.29647 -0.96036,0.70796 -1.1932,0.91446 -0.94867,0.84132 -3.28209,2.12817 -6.93492,3.82448 -0.80408,0.37341 -1.84274,0.72054 -3.5073,1.17221 -0.77611,0.21059 -1.62894,0.47842 -1.89519,0.59518 -0.26624,0.11675 -0.86182,0.24092 -1.32351,0.27591 -0.46169,0.035 -0.90588,0.10471 -0.98709,0.1549 -0.22214,0.13729 -2.59476,0.36944 -3.52905,0.34531 -1.14137,-0.0295 -1.60106,-0.29735 -1.78983,-1.04299 -0.0834,-0.3294 -0.31165,-1.07516 -0.50723,-1.65724 -0.19558,-0.58208 -0.44777,-1.58542 -0.56044,-2.22964 -0.11266,-0.64421 -0.30474,-1.40621 -0.42686,-1.69333 -0.37236,-0.87555 -0.61709,-3.30676 -0.71305,-7.0837 -0.10299,-4.05417 -0.48707,-5.32661 -1.24005,-4.10828 -0.0425,0.0688 -0.87255,0.51805 -1.84452,0.99837 -0.97197,0.48031 -1.96499,1.0397 -2.2067,1.24309 -0.25213,0.21216 -0.71758,0.41537 -1.09186,0.47671 -1.08603,0.178 -2.17623,0.42789 -2.70949,0.62106 -0.63721,0.23081 -3.36867,-0.18203 -3.80263,-0.57477 -0.14694,-0.13297 -0.57136,-0.27088 -0.94316,-0.30646 -0.84322,-0.0807 -1.40796,-0.28889 -1.51086,-0.55706 -0.0435,-0.11327 -0.35872,-0.32966 -0.70057,-0.48088 -0.34184,-0.15121 -0.6581,-0.37022 -0.70279,-0.48669 -0.0447,-0.11646 -0.19778,-0.21175 -0.34019,-0.21175 -0.14241,0 -0.92228,-0.22135 -1.73304,-0.4919 -2.62302,-0.87527 -2.72485,-0.80201 -2.93902,2.11468 -0.0798,1.08655 -0.21032,2.29305 -0.29008,2.68111 -0.0798,0.38805 -0.24816,1.5628 -0.37421,2.61055 -0.12606,1.04775 -0.27982,2.31775 -0.34171,2.82222 -0.1336,1.08916 -0.35553,1.73003 -1.02617,2.96334 -0.35662,0.65583 -0.52608,1.17861 -0.59461,1.83444 -0.0527,0.50447 -0.24039,1.32997 -0.41706,1.83445 -0.17667,0.50447 -0.36538,1.16017 -0.41936,1.4571 -0.20304,1.11688 -5.51853,1.50706 -7.98256,0.58596 -0.27219,-0.10176 -1.00851,-0.28324 -1.63628,-0.40331 -0.62776,-0.12007 -1.32626,-0.28881 -1.55222,-0.375 -0.22596,-0.0862 -0.66483,-0.21233 -0.97528,-0.28036 -2.42462,-0.53126 -8.9469,-3.59275 -10.37166,-4.86835 -0.19403,-0.17372 -0.51461,-0.40276 -0.7124,-0.509 -0.93893,-0.5043 -4.72686,-3.49867 -7.01445,-5.54493 -1.41284,-1.26381 -5.24723,-5.341 -6.11435,-6.50156 -0.17396,-0.23283 -0.55136,-0.67733 -0.83865,-0.98777 -0.2873,-0.31045 -0.68011,-0.80332 -0.87291,-1.09528 -0.79558,-1.20475 -1.94049,-2.11026 -1.5856,-1.25406 0.29801,0.71898 0.31235,1.15477 0.049,1.48955 -0.46865,0.59578 -0.34812,1.25487 0.78928,4.31589 0.12954,0.34865 0.28803,0.6979 0.3522,0.77611 0.0642,0.0782 0.44811,0.96773 0.85322,1.97667 0.96529,2.40413 1.57399,3.51902 3.13152,5.73561 0.52604,0.74863 0.95644,1.40735 0.95644,1.4638 0,0.0564 0.28575,0.5733 0.635,1.14856 0.34925,0.57527 0.635,1.07323 0.635,1.10659 0,0.12086 1.88351,3.25275 2.12153,3.52767 0.43969,0.50784 0.70068,1.17446 0.70162,1.79215 0.001,0.76076 0.23981,1.12062 1.48074,2.23296 0.54328,0.48697 1.10078,1.00228 1.2389,1.14511 0.13811,0.14285 0.61381,0.53023 1.0571,0.86085 0.44329,0.33064 1.18754,0.90616 1.65388,1.27896 0.75372,0.60253 2.29954,1.44282 3.15192,1.71336 0.37799,0.11997 0.54742,0.70524 0.29292,1.01189 -0.62479,0.75283 -4.87453,-0.97175 -7.25767,-2.9452 -1.87998,-1.55681 -2.2735,-1.57054 -1.54383,-0.0539 0.51461,1.06965 0.51461,1.06965 0.11403,1.42198 -0.68511,0.60257 -0.72686,0.56389 -1.97017,-1.82598 -1.20171,-2.30989 -2.17102,-1.90462 -2.16824,0.90654 8.4e-4,0.8984 -0.0731,2.41176 -0.16446,3.36301 -0.13458,1.40165 -0.13107,1.79494 0.0185,2.07445 0.59187,1.10592 -0.40182,2.65659 -1.2472,1.94627 z m -14.10238,-54.15138 c -0.0232,-0.23284 -0.21949,-0.80434 -0.43614,-1.27 -0.21664,-0.46567 -0.47793,-1.06892 -0.58064,-1.34056 -0.10271,-0.27164 -0.46207,-1.1476 -0.79858,-1.94658 -0.33651,-0.79899 -0.61184,-1.5532 -0.61184,-1.67602 0,-0.12282 -0.18169,-0.61211 -0.40376,-1.0873 -0.45103,-0.96515 -1.14818,-3.04966 -1.14897,-3.4355 -2.8e-4,-0.13789 -0.19075,-0.75871 -0.42326,-1.3796 -0.23251,-0.62089 -0.5149,-1.47814 -0.62753,-1.905 -0.11264,-0.42686 -0.37002,-1.37936 -0.57197,-2.11666 -0.4164,-1.52026 -0.87106,-3.40249 -1.07371,-4.445 -0.0754,-0.38806 -0.22735,-1.02306 -0.3376,-1.41111 -0.27874,-0.98115 -1.0363,-5.12814 -1.18579,-6.49111 -0.0681,-0.62089 -0.25169,-1.98614 -0.408,-3.03389 -0.1563,-1.04775 -0.39077,-2.9845 -0.52104,-4.30389 -0.13026,-1.31939 -0.2955,-2.59204 -0.36719,-2.82812 -0.0717,-0.23608 -0.19114,-1.18858 -0.26545,-2.11667 -0.0743,-0.92809 -0.19771,-2.22718 -0.27421,-2.88688 -0.17008,-1.46661 -0.28415,-2.98523 -0.37099,-4.93889 -0.0362,-0.81491 -0.12325,-1.67216 -0.19341,-1.905 -0.15722,-0.52177 -0.35018,-2.98678 -0.31106,-3.97359 0.0159,-0.40043 -0.0456,-1.79743 -0.13663,-3.10444 -0.18215,-2.61568 -0.19152,-2.88908 -0.32569,-9.50252 -0.12845,-6.33116 -0.0514,-6.13028 -2.48374,-6.4715 -1.99464,-0.27979 -2.8939,-0.43241 -3.88055,-0.65852 -1.83834,-0.42132 -1.99337,-0.31043 -1.52249,1.08892 0.16481,0.4898 0.33131,1.01754 0.37,1.17276 0.0387,0.15523 0.19691,0.59973 0.35161,0.98778 0.15469,0.38806 0.57279,1.43529 0.92912,2.32716 0.35633,0.89188 0.64787,1.77352 0.64787,1.95919 0,0.18566 0.0585,0.5672 0.13,0.84784 0.24793,0.97313 0.56645,3.62322 0.63854,5.31271 0.0399,0.9339 0.1361,2.17215 0.21389,2.75166 0.13802,1.02819 0.42185,4.44113 0.48662,5.85144 0.0178,0.38806 0.0755,0.92781 0.12822,1.19945 0.0527,0.27163 0.15903,1.60513 0.23627,2.96333 0.0773,1.35819 0.20687,2.70606 0.28805,2.99527 0.0812,0.2892 0.16562,1.46395 0.18764,2.61055 0.022,1.1466 0.11332,2.62448 0.20289,3.28418 0.0896,0.65969 0.26749,2.31069 0.39538,3.66889 0.12789,1.35819 0.29002,2.58013 0.36029,2.71541 0.0703,0.13529 0.15062,0.73995 0.17856,1.3437 0.0279,0.60378 0.15124,1.33815 0.27401,1.63197 0.12276,0.29382 0.25521,1.02266 0.29431,1.61963 0.0391,0.59697 0.17157,1.5299 0.29435,2.07318 0.12278,0.54327 0.25506,1.27352 0.29396,1.62277 0.0389,0.34925 0.15736,1.016 0.26325,1.48167 0.10589,0.46567 0.30138,1.35467 0.43442,1.97556 0.29588,1.38081 0.70366,2.66474 0.98055,3.08732 0.11383,0.17373 0.27133,0.65525 0.35,1.07005 0.14167,0.74706 0.19748,0.8819 0.88157,2.12996 1.11341,2.03132 1.80752,3.91823 1.873,5.0917 0.076,1.36214 0.3898,1.96014 1.38955,2.64799 1.699,1.16893 3.81409,4.17423 3.12412,4.439 -0.55676,0.21366 0.19931,1.21723 1.65183,2.19256 1.03489,0.69491 1.47389,0.7213 1.41037,0.0848 z m 125.493561,-12.2083 c 1.14189,-0.70572 2.42597,-3.24337 1.6412,-3.24337 -0.55968,0 -1.90911,1.39315 -2.17198,2.24236 -0.41587,1.3434 -0.31894,1.52617 0.53078,1.00101 z m 4.78103,-26.34033 c 0.26399,-0.77479 0.2798,-1.09007 0.0739,-1.47476 -0.25125,-0.46945 -0.52339,-0.0634 -0.63102,0.94161 -0.15782,1.47375 0.1396,1.7584 0.55709,0.53315 z m 0.42144,-2.66736 c 0.0471,-0.12276 0.0857,-0.34816 0.0857,-0.50089 0,-0.15273 0.10871,-0.48092 0.24158,-0.7293 0.16743,-0.31296 0.24418,-0.79817 0.25001,-1.58049 0.005,-0.62089 0.11989,-1.69255 0.25614,-2.38147 0.13625,-0.68893 0.21321,-1.36133 0.17103,-1.49423 -0.0422,-0.13288 0.0204,-0.47392 0.13901,-0.75785 0.14993,-0.35882 0.20732,-0.91652 0.18824,-1.82902 -0.0151,-0.72206 0.027,-1.40087 0.0935,-1.50848 0.0665,-0.10761 0.10668,-0.75109 0.0893,-1.42995 -0.0174,-0.67886 0.034,-1.3496 0.11433,-1.49053 0.57167,-1.00346 0.76298,-2.09694 0.78791,-4.50365 0.0138,-1.32712 0.0697,-2.48523 0.12429,-2.57358 0.29997,-0.48538 0.76496,-3.37916 0.6839,-4.25624 -0.0179,-0.19402 0.0942,-0.65086 0.24908,-1.01519 0.24404,-0.57387 0.26392,-0.78789 0.14875,-1.6012 -0.0829,-0.58518 -0.0831,-1.06996 0,-1.28705 0.0728,-0.19154 0.1324,-0.50618 0.1324,-0.69918 0,-0.19299 0.12075,-0.58573 0.26833,-0.87275 0.14757,-0.28701 0.34623,-0.77585 0.44145,-1.08629 0.0952,-0.31045 0.45573,-1.1677 0.8011,-1.905 1.1465,-2.44756 1.6247,-3.45334 1.82182,-3.83178 0.43857,-0.842 0.15667,-1.027 -0.812,-0.53282 -0.31487,0.16064 -0.65007,0.2623 -0.74487,0.22594 -0.0948,-0.0364 -0.45376,-0.009 -0.7977,0.0607 -0.34394,0.0698 -1.18696,0.19046 -1.87338,0.26819 -0.87298,0.0989 -1.35576,0.22608 -1.60653,0.42334 -0.19718,0.15509 -0.43196,0.28199 -0.52176,0.28199 -0.38048,0 -1.38403,1.22664 -1.23357,1.50779 0.0992,0.18535 0.0959,0.61649 -0.0106,1.37551 -0.11604,0.82695 -0.11347,1.26129 0.0102,1.7237 0.0909,0.33999 0.16685,1.07762 0.16871,1.6392 0.002,0.56157 0.0674,1.27503 0.14571,1.58547 0.23637,0.93722 0.25779,2.50857 0.0377,2.76634 -0.1595,0.18682 -0.16866,0.65601 -0.0525,2.68703 0.0774,1.35336 0.0922,2.93426 0.0329,3.5131 -0.0593,0.57882 -0.0859,1.36992 -0.059,1.75797 0.0269,0.38806 0.0336,1.43581 0.015,2.32834 -0.0187,0.89253 -0.025,1.90853 -0.0141,2.25778 0.0517,1.65066 0.0408,5.01599 -0.0207,6.34999 -0.0961,2.08592 -0.36274,5.79826 -0.4423,6.15747 -0.0371,0.16774 0.0265,0.37874 0.14356,0.47589 0.11565,0.096 0.21029,0.29376 0.21029,0.43947 0,0.32243 0.21956,0.34956 0.33768,0.0417 z m 9.40488,-54.60555 c 0.5433,-0.65464 -0.55554,-1.22966 -1.35227,-0.70762 -0.84729,0.55516 -2.46476,-0.32911 -1.86415,-1.01914 0.11571,-0.13294 0.27115,-0.43089 0.34541,-0.66212 0.13392,-0.41694 1.9736,-1.82085 2.87571,-2.194506 0.22501,-0.0932 0.48001,-0.38095 0.62756,-0.70815 0.13669,-0.30313 0.37232,-0.59045 0.52363,-0.63847 0.1513,-0.048 0.35906,-0.28826 0.46169,-0.53388 0.10262,-0.245604 0.43019,-0.73176 0.72795,-1.080319 0.83321,-0.975416 1.17636,-1.510989 1.17636,-1.835982 0,-0.163379 0.12174,-0.594586 0.27054,-0.958215 0.38844,-0.949325 0.49156,-2.188605 0.22503,-2.704028 -0.14041,-0.271526 -0.21335,-0.815354 -0.21335,-1.590787 0,-0.648039 -0.0601,-1.238561 -0.13352,-1.312291 -0.0734,-0.07373 -0.17804,-0.880844 -0.23246,-1.793579 -0.12727,-2.134686 -0.11466,-2.119079 -1.76797,-2.185769 -0.72779,-0.02935 -1.49526,-0.119408 -1.70545,-0.200123 -0.21022,-0.0807 -0.74997,-0.199277 -1.19945,-0.263497 -2.06239,-0.29464 -4.3269,-0.950779 -5.00823,-1.45113 -0.20952,-0.153868 -0.65402,-0.325487 -0.98778,-0.381381 -1.51508,-0.253676 -2.89757,-0.608669 -3.422,-0.878671 -0.32293,-0.166271 -0.87832,-0.303756 -1.27703,-0.316117 -0.38805,-0.01199 -0.95653,-0.134662 -1.26328,-0.2725 -0.35539,-0.159695 -0.73162,-0.222391 -1.03704,-0.172833 -0.4051,0.06574 -0.53957,0.01185 -0.86844,-0.348262 -1.64761,-1.803894 -2.672731,-0.260844 -1.65815,2.495931 0.34061,0.92552 0.76074,2.159014 0.93362,2.741097 0.17287,0.582084 0.46871,1.39312 0.65742,1.8023 0.18871,0.409165 0.3431,0.880914 0.3431,1.048314 0,0.394688 0.52098,2.139978 0.85504,2.864386 0.14316,0.310445 0.28777,0.993055 0.32137,1.516916 0.0359,0.559464 0.15864,1.101344 0.29751,1.313279 0.13002,0.198445 0.25745,0.658848 0.28318,1.023084 0.0257,0.36425 0.17706,1.046508 0.33631,1.51614 0.15926,0.469618 0.35125,1.456997 0.42668,2.194177 0.0927,0.90643 0.23195,1.501056 0.43007,1.836846 0.21778,0.36909 0.28742,0.71134 0.2714,1.33359 -0.0459,1.78258 1.11578,2.87305 2.28369,2.14369 0.20787,-0.12982 0.34472,-0.13483 0.52956,-0.0194 0.14508,0.0906 1.01507,0.16136 2.08139,0.16928 1.089,0.008 2.1379,0.0948 2.58597,0.21376 0.46162,0.12255 1.09693,0.1726 1.63883,0.12911 0.48673,-0.0391 0.98976,-0.0124 1.11785,0.0593 0.30958,0.17326 1.16676,0.0649 1.3637,-0.17242 z M -161.6504,-61.956527 c 0.92869,-0.442868 1.13401,-1.515408 0.44989,-2.350284 -1.02491,-1.250763 -0.63324,-2.220267 0.88989,-2.202696 1.57029,0.01812 1.82508,0.176818 3.01211,1.876171 0.41708,0.597099 1.27953,0.197286 2.18108,-1.011102 0.38833,-0.520498 1.00099,-1.291814 1.36146,-1.714037 0.36048,-0.422223 0.65542,-0.828126 0.65542,-0.902009 0,-0.07388 0.29063,-0.474517 0.64585,-0.890301 0.3552,-0.415784 0.87908,-1.190985 1.16417,-1.722669 0.4849,-0.904384 1.16902,-1.899029 2.34394,-3.407899 1.76832,-2.270942 1.80699,-2.514065 0.50486,-3.173909 -0.95907,-0.486001 -1.5037,-1.165784 -1.62177,-2.024228 -0.15645,-1.137515 -0.59902,-1.390743 -3.31927,-1.899226 -0.50448,-0.0943 -0.98073,-0.210344 -1.05834,-0.257879 -0.0776,-0.04754 -0.47468,-0.164683 -0.88238,-0.260329 -0.4077,-0.09564 -0.77656,-0.231017 -0.81971,-0.30083 -0.0431,-0.06981 -0.22011,-0.126932 -0.39325,-0.126932 -2.19167,0 -4.1841,-1.395864 -4.1841,-2.931311 0,-2.308249 5.76646,-2.56265 8.81944,-0.389092 0.23284,0.165767 0.67015,0.443906 0.97182,0.618091 0.30167,0.174186 0.93667,0.660589 1.41111,1.080897 3.71041,3.287034 3.66548,3.291359 3.9858,-0.38368 0.16837,-1.931884 0.17879,-2.684139 0.0512,-3.702215 -0.088,-0.702729 -0.2175,-1.859446 -0.28767,-2.570479 -0.0815,-0.825733 -0.25111,-1.572101 -0.46949,-2.065907 -0.18806,-0.425212 -0.38512,-0.969853 -0.43794,-1.210314 -0.0528,-0.240459 -0.15613,-0.47434 -0.22957,-0.519736 -0.0735,-0.04539 -0.32256,-0.499388 -0.55357,-1.008872 -0.23101,-0.509485 -0.67403,-1.201903 -0.98449,-1.538705 -0.31044,-0.336804 -0.56446,-0.711151 -0.56446,-0.831881 0,-0.743114 -1.78641,-3.14801 -2.57207,-3.46259 -0.254,-0.1017 -0.69328,-0.37987 -0.97618,-0.61816 -0.2829,-0.2383 -0.75145,-0.59202 -1.04122,-0.78605 -3.18435,-2.1322 -3.24308,-4.88262 -0.10992,-5.14767 1.49748,-0.12668 1.48041,-0.11793 1.22601,-0.62788 -0.28264,-0.56657 -0.382,-0.61452 -1.35866,-0.65564 -1.53498,-0.0646 -2.04878,-1.03548 -1.73509,-3.27848 0.0791,-0.56541 0.0552,-0.80763 -0.0974,-0.98777 -1.3063,-1.54214 -1.13542,-3.24804 0.34779,-3.4718 1.47297,-0.22223 1.93638,-0.53304 1.94013,-1.30128 0.002,-0.44231 -0.0968,-0.55683 -1.48166,-1.71467 -1.18652,-0.99202 -3.73699,-1.11656 -6.16701,-0.30114 -1.49349,0.50116 -2.56152,0.30069 -5.19028,-0.97426 -0.67811,-0.32888 -1.33564,-0.38652 -2.03609,-0.17847 -0.23834,0.0708 -0.86793,0.23258 -1.39908,0.35953 -2.86141,0.6839 -3.36158,3.8862 -0.60699,3.8862 1.66244,0 2.31827,2.56028 0.96271,3.75827 -0.65999,0.58327 -0.65999,0.58327 -0.45314,1.05834 0.7972,1.83086 -0.15568,3.75493 -1.91657,3.86992 -1.31389,0.0858 -2.07629,0.76791 -0.8583,0.76791 0.39509,0 2.22844,0.58168 2.61959,0.83114 1.34393,0.85709 -0.40402,4.24886 -2.18966,4.24886 -0.56867,0 -1.05356,0.32611 -1.35058,0.90831 -0.6746,1.32232 -1.41508,1.959717 -3.10365,2.671581 -0.95815,0.403937 -2.8425,3.67944 -3.5419,6.156781 -0.81907,2.901226 -0.98612,5.014791 -0.41384,5.236155 3.18688,1.232718 3.8179,3.025602 1.55199,4.409576 -0.27248,0.166431 -0.84935,0.513419 -1.28192,0.771085 -0.43256,0.257666 -0.8249,0.589521 -0.87185,0.737458 -0.1588,0.500335 0.61016,6.18923 0.9131,6.755283 0.081,0.151372 0.14729,0.594741 0.14729,0.985266 0,0.390525 0.0893,0.918574 0.1985,1.173444 0.25985,0.606662 1.0715,3.374971 1.0715,3.654607 0,0.195962 0.51459,1.59714 0.84913,2.312125 0.0726,0.155222 0.24813,0.599722 0.39,0.987777 0.36789,1.006288 1.40298,0.972442 2.73436,-0.08941 1.43894,-1.14764 3.9798,-0.114601 3.44517,1.400707 -0.10572,0.299624 -0.15902,0.718402 -0.11845,0.930618 0.1477,0.772658 1.222,1.026078 1.37331,0.323957 0.2693,-1.249592 0.39381,-2.914699 0.37412,-5.003299 -0.0234,-2.479706 0.0217,-2.752998 0.55279,-3.348129 0.16579,-0.185802 0.30148,-0.694515 0.39717,-1.489001 0.39123,-3.248528 1.94448,-3.686354 2.72494,-0.768103 0.0546,0.204227 0.2529,0.524916 0.44063,0.712643 0.39434,0.394337 0.57431,1.955224 0.42744,3.707105 -0.0651,0.776427 -0.0342,1.049169 0.14859,1.310082 0.12694,0.181233 0.2308,0.46636 0.2308,0.633616 0,0.167256 0.085,0.374617 0.18882,0.460802 0.10384,0.08619 0.30026,0.554337 0.43647,1.040335 0.28152,1.004386 0.2933,1.028658 0.82152,1.692891 0.2383,0.299636 0.45101,0.810486 0.5502,1.32129 0.24212,1.247 0.35404,1.338391 1.16536,0.9515 z"
       inkscape:connector-curvature="0" />
  </g>
</svg>
